<svg version="1.1" viewBox="0.0 0.0 600.0 371.0" fill="none" stroke="none" stroke-linecap="square" stroke-miterlimit="10" width="600" height="371" xmlns:xlink="http://www.w3.org/1999/xlink" xmlns="http://www.w3.org/2000/svg"><path fill="#ffffff" fill-opacity="0.0" d="M0 0L600.0 0L600.0 371.0L0 371.0L0 0Z" fill-rule="nonzero"/><path stroke="#333333" stroke-width="1.0" stroke-linecap="butt" d="M105.5 81.5L105.5 332.5" fill-rule="nonzero"/><path stroke="#cccccc" stroke-width="1.0" stroke-linecap="butt" d="M224.5 81.5L224.5 332.5" fill-rule="nonzero"/><path stroke="#cccccc" stroke-width="1.0" stroke-linecap="butt" d="M343.5 81.5L343.5 332.5" fill-rule="nonzero"/><path stroke="#cccccc" stroke-width="1.0" stroke-linecap="butt" d="M462.5 81.5L462.5 332.5" fill-rule="nonzero"/><path stroke="#cccccc" stroke-width="1.0" stroke-linecap="butt" d="M581.5 81.5L581.5 332.5" fill-rule="nonzero"/><clipPath id="id_0"><path d="M105.55 81.28333L581.45 81.28333L581.45 332.45L105.55 332.45L105.55 81.28333Z" clip-rule="nonzero"/></clipPath><path stroke="#000000" stroke-width="2.0" stroke-linecap="butt" stroke-opacity="0.0" clip-path="url(#id_0)" d="M106.0 103.0L106.0 94.0L127.0 94.0C128.10457 94.0 129.0 94.89543 129.0 96.0L129.0 101.0C129.0 102.10457 128.10457 103.0 127.0 103.0Z" fill-rule="nonzero"/><path fill="#6fa8dc" clip-path="url(#id_0)" d="M106.0 103.0L106.0 94.0L127.0 94.0C128.10457 94.0 129.0 94.89543 129.0 96.0L129.0 101.0C129.0 102.10457 128.10457 103.0 127.0 103.0Z" fill-rule="nonzero"/><path stroke="#000000" stroke-width="2.0" stroke-linecap="butt" stroke-opacity="0.0" clip-path="url(#id_0)" d="M106.0 138.0L106.0 129.0L151.0 129.0C152.10457 129.0 153.0 129.89543 153.0 131.0L153.0 136.0C153.0 137.10457 152.10457 138.0 151.0 138.0Z" fill-rule="nonzero"/><path fill="#6fa8dc" clip-path="url(#id_0)" d="M106.0 138.0L106.0 129.0L151.0 129.0C152.10457 129.0 153.0 129.89543 153.0 131.0L153.0 136.0C153.0 137.10457 152.10457 138.0 151.0 138.0Z" fill-rule="nonzero"/><path stroke="#000000" stroke-width="2.0" stroke-linecap="butt" stroke-opacity="0.0" clip-path="url(#id_0)" d="M106.0 172.0L106.0 163.0L163.0 163.0C164.10457 163.0 165.0 163.89543 165.0 165.0L165.0 170.0C165.0 171.10457 164.10457 172.0 163.0 172.0Z" fill-rule="nonzero"/><path fill="#6fa8dc" clip-path="url(#id_0)" d="M106.0 172.0L106.0 163.0L163.0 163.0C164.10457 163.0 165.0 163.89543 165.0 165.0L165.0 170.0C165.0 171.10457 164.10457 172.0 163.0 172.0Z" fill-rule="nonzero"/><path stroke="#000000" stroke-width="2.0" stroke-linecap="butt" stroke-opacity="0.0" clip-path="url(#id_0)" d="M106.0 206.0L106.0 197.0L151.0 197.0C152.10457 197.0 153.0 197.89543 153.0 199.0L153.0 204.0C153.0 205.10457 152.10457 206.0 151.0 206.0Z" fill-rule="nonzero"/><path fill="#6fa8dc" clip-path="url(#id_0)" d="M106.0 206.0L106.0 197.0L151.0 197.0C152.10457 197.0 153.0 197.89543 153.0 199.0L153.0 204.0C153.0 205.10457 152.10457 206.0 151.0 206.0Z" fill-rule="nonzero"/><path stroke="#000000" stroke-width="2.0" stroke-linecap="butt" stroke-opacity="0.0" clip-path="url(#id_0)" d="M106.0 240.0L106.0 231.0L161.0 231.0C162.10457 231.0 163.0 231.89543 163.0 233.0L163.0 238.0C163.0 239.10457 162.10457 240.0 161.0 240.0Z" fill-rule="nonzero"/><path fill="#6fa8dc" clip-path="url(#id_0)" d="M106.0 240.0L106.0 231.0L161.0 231.0C162.10457 231.0 163.0 231.89543 163.0 233.0L163.0 238.0C163.0 239.10457 162.10457 240.0 161.0 240.0Z" fill-rule="nonzero"/><path stroke="#000000" stroke-width="2.0" stroke-linecap="butt" stroke-opacity="0.0" clip-path="url(#id_0)" d="M106.0 274.0L106.0 265.0L106.0 265.0L106.0 274.0Z" fill-rule="nonzero"/><path fill="#6fa8dc" clip-path="url(#id_0)" d="M106.0 274.0L106.0 265.0L106.0 265.0L106.0 274.0Z" fill-rule="nonzero"/><path stroke="#000000" stroke-width="2.0" stroke-linecap="butt" stroke-opacity="0.0" clip-path="url(#id_0)" d="M106.0 308.0L106.0 299.0L339.0 299.0C340.10458 299.0 341.0 299.89542 341.0 301.0L341.0 306.0C341.0 307.10458 340.10458 308.0 339.0 308.0Z" fill-rule="nonzero"/><path fill="#6fa8dc" clip-path="url(#id_0)" d="M106.0 308.0L106.0 299.0L339.0 299.0C340.10458 299.0 341.0 299.89542 341.0 301.0L341.0 306.0C341.0 307.10458 340.10458 308.0 339.0 308.0Z" fill-rule="nonzero"/><path stroke="#000000" stroke-width="2.0" stroke-linecap="butt" stroke-opacity="0.0" clip-path="url(#id_0)" d="M106.0 114.0L106.0 105.0L132.0 105.0C133.10457 105.0 134.0 105.89543 134.0 107.0L134.0 112.0C134.0 113.10457 133.10457 114.0 132.0 114.0Z" fill-rule="nonzero"/><path fill="#d5a6bd" clip-path="url(#id_0)" d="M106.0 114.0L106.0 105.0L132.0 105.0C133.10457 105.0 134.0 105.89543 134.0 107.0L134.0 112.0C134.0 113.10457 133.10457 114.0 132.0 114.0Z" fill-rule="nonzero"/><path stroke="#000000" stroke-width="2.0" stroke-linecap="butt" stroke-opacity="0.0" clip-path="url(#id_0)" d="M106.0 149.0L106.0 140.0L169.0 140.0C170.10457 140.0 171.0 140.89543 171.0 142.0L171.0 147.0C171.0 148.10457 170.10457 149.0 169.0 149.0Z" fill-rule="nonzero"/><path fill="#d5a6bd" clip-path="url(#id_0)" d="M106.0 149.0L106.0 140.0L169.0 140.0C170.10457 140.0 171.0 140.89543 171.0 142.0L171.0 147.0C171.0 148.10457 170.10457 149.0 169.0 149.0Z" fill-rule="nonzero"/><path stroke="#000000" stroke-width="2.0" stroke-linecap="butt" stroke-opacity="0.0" clip-path="url(#id_0)" d="M106.0 183.0L106.0 174.0L179.0 174.0C180.10457 174.0 181.0 174.89543 181.0 176.0L181.0 181.0C181.0 182.10457 180.10457 183.0 179.0 183.0Z" fill-rule="nonzero"/><path fill="#d5a6bd" clip-path="url(#id_0)" d="M106.0 183.0L106.0 174.0L179.0 174.0C180.10457 174.0 181.0 174.89543 181.0 176.0L181.0 181.0C181.0 182.10457 180.10457 183.0 179.0 183.0Z" fill-rule="nonzero"/><path stroke="#000000" stroke-width="2.0" stroke-linecap="butt" stroke-opacity="0.0" clip-path="url(#id_0)" d="M106.0 217.0L106.0 208.0L185.0 208.0C186.10457 208.0 187.0 208.89543 187.0 210.0L187.0 215.0C187.0 216.10457 186.10457 217.0 185.0 217.0Z" fill-rule="nonzero"/><path fill="#d5a6bd" clip-path="url(#id_0)" d="M106.0 217.0L106.0 208.0L185.0 208.0C186.10457 208.0 187.0 208.89543 187.0 210.0L187.0 215.0C187.0 216.10457 186.10457 217.0 185.0 217.0Z" fill-rule="nonzero"/><path stroke="#000000" stroke-width="2.0" stroke-linecap="butt" stroke-opacity="0.0" clip-path="url(#id_0)" d="M106.0 251.0L106.0 242.0L171.0 242.0C172.10457 242.0 173.0 242.89543 173.0 244.0L173.0 249.0C173.0 250.10457 172.10457 251.0 171.0 251.0Z" fill-rule="nonzero"/><path fill="#d5a6bd" clip-path="url(#id_0)" d="M106.0 251.0L106.0 242.0L171.0 242.0C172.10457 242.0 173.0 242.89543 173.0 244.0L173.0 249.0C173.0 250.10457 172.10457 251.0 171.0 251.0Z" fill-rule="nonzero"/><path stroke="#000000" stroke-width="2.0" stroke-linecap="butt" stroke-opacity="0.0" clip-path="url(#id_0)" d="M106.0 285.0L106.0 276.0L161.0 276.0C162.10457 276.0 163.0 276.89542 163.0 278.0L163.0 283.0C163.0 284.10458 162.10457 285.0 161.0 285.0Z" fill-rule="nonzero"/><path fill="#d5a6bd" clip-path="url(#id_0)" d="M106.0 285.0L106.0 276.0L161.0 276.0C162.10457 276.0 163.0 276.89542 163.0 278.0L163.0 283.0C163.0 284.10458 162.10457 285.0 161.0 285.0Z" fill-rule="nonzero"/><path stroke="#000000" stroke-width="2.0" stroke-linecap="butt" stroke-opacity="0.0" clip-path="url(#id_0)" d="M106.0 319.0L106.0 310.0L479.0 310.0C480.10458 310.0 481.0 310.89542 481.0 312.0L481.0 317.0C481.0 318.10458 480.10458 319.0 479.0 319.0Z" fill-rule="nonzero"/><path fill="#d5a6bd" clip-path="url(#id_0)" d="M106.0 319.0L106.0 310.0L479.0 310.0C480.10458 310.0 481.0 310.89542 481.0 312.0L481.0 317.0C481.0 318.10458 480.10458 319.0 479.0 319.0Z" fill-rule="nonzero"/><path fill="#999999" d="M62.425 99.75591L65.8625 99.75591Q66.87813 99.75591 67.37813 99.84966Q67.87813 99.92779 68.26875 100.20904Q68.675 100.47466 68.94063 100.92779Q69.20625 101.36529 69.20625 101.92779Q69.20625 102.52154 68.87813 103.03716Q68.55 103.53716 68.00313 103.78716Q68.78438 104.00591 69.20625 104.56841Q69.62813 105.11529 69.62813 105.86529Q69.62813 106.44341 69.34688 107.00591Q69.08125 107.55279 68.6125 107.88091Q68.14375 108.20904 67.44063 108.28716Q67.01875 108.33404 65.34688 108.34966L62.425 108.34966L62.425 99.75591ZM64.15938 101.19341L64.15938 103.17779L65.3 103.17779Q66.31563 103.17779 66.56563 103.14654Q67.00313 103.09966 67.25313 102.84966Q67.51875 102.58404 67.51875 102.16216Q67.51875 101.77154 67.3 101.52154Q67.08125 101.27154 66.64375 101.22466Q66.37813 101.19341 65.15938 101.19341L64.15938 101.19341ZM64.15938 104.59966L64.15938 106.89654L65.76875 106.89654Q66.70625 106.89654 66.95625 106.84966Q67.34688 106.77154 67.58125 106.50591Q67.83125 106.24029 67.83125 105.77154Q67.83125 105.39654 67.64375 105.13091Q67.45625 104.84966 67.09688 104.72466Q66.75313 104.59966 65.56563 104.59966L64.15938 104.59966ZM70.425 99.75591L73.8625 99.75591Q74.87813 99.75591 75.37813 99.84966Q75.87813 99.92779 76.26875 100.20904Q76.675 100.47466 76.94063 100.92779Q77.20625 101.36529 77.20625 101.92779Q77.20625 102.52154 76.87813 103.03716Q76.55 103.53716 76.00313 103.78716Q76.78438 104.00591 77.20625 104.56841Q77.62813 105.11529 77.62813 105.86529Q77.62813 106.44341 77.34688 107.00591Q77.08125 107.55279 76.6125 107.88091Q76.14375 108.20904 75.44063 108.28716Q75.01875 108.33404 73.34688 108.34966L70.425 108.34966L70.425 99.75591ZM72.15938 101.19341L72.15938 103.17779L73.3 103.17779Q74.31563 103.17779 74.56563 103.14654Q75.00313 103.09966 75.25313 102.84966Q75.51875 102.58404 75.51875 102.16216Q75.51875 101.77154 75.3 101.52154Q75.08125 101.27154 74.64375 101.22466Q74.37813 101.19341 73.15938 101.19341L72.15938 101.19341ZM72.15938 104.59966L72.15938 106.89654L73.76875 106.89654Q74.70625 106.89654 74.95625 106.84966Q75.34688 106.77154 75.58125 106.50591Q75.83125 106.24029 75.83125 105.77154Q75.83125 105.39654 75.64375 105.13091Q75.45625 104.84966 75.09688 104.72466Q74.75313 104.59966 73.56563 104.59966L72.15938 104.59966ZM78.40938 108.34966L78.40938 106.70904L80.06563 106.70904L80.06563 108.34966L78.40938 108.34966ZM81.425 99.75591L84.58125 99.75591Q85.65938 99.75591 86.22188 99.92779Q86.97188 100.14654 87.50313 100.72466Q88.05 101.28716 88.33125 102.11529Q88.6125 102.92779 88.6125 104.13091Q88.6125 105.19341 88.3625 105.95904Q88.03438 106.89654 87.44063 107.47466Q86.9875 107.92779 86.22188 108.16216Q85.64375 108.34966 84.675 108.34966L81.425 108.34966L81.425 99.75591ZM83.15938 101.20904L83.15938 106.89654L84.44063 106.89654Q85.175 106.89654 85.50313 106.81841Q85.925 106.70904 86.19063 106.45904Q86.47188 106.20904 86.64375 105.63091Q86.83125 105.05279 86.83125 104.05279Q86.83125 103.06841 86.64375 102.53716Q86.47188 101.99029 86.15938 101.69341Q85.84688 101.39654 85.3625 101.28716Q84.9875 101.20904 83.925 101.20904L83.15938 101.20904ZM89.425 99.75591L92.58125 99.75591Q93.65938 99.75591 94.22188 99.92779Q94.97188 100.14654 95.50313 100.72466Q96.05 101.28716 96.33125 102.11529Q96.6125 102.92779 96.6125 104.13091Q96.6125 105.19341 96.3625 105.95904Q96.03438 106.89654 95.44063 107.47466Q94.9875 107.92779 94.22188 108.16216Q93.64375 108.34966 92.675 108.34966L89.425 108.34966L89.425 99.75591ZM91.15938 101.20904L91.15938 106.89654L92.44063 106.89654Q93.175 106.89654 93.50313 106.81841Q93.925 106.70904 94.19063 106.45904Q94.47188 106.20904 94.64375 105.63091Q94.83125 105.05279 94.83125 104.05279Q94.83125 103.06841 94.64375 102.53716Q94.47188 101.99029 94.15938 101.69341Q93.84688 101.39654 93.3625 101.28716Q92.9875 101.20904 91.925 101.20904L91.15938 101.20904ZM97.40938 108.34966L97.40938 106.70904L99.06563 106.70904L99.06563 108.34966L97.40938 108.34966Z" fill-rule="nonzero"/><path fill="#999999" d="M60.471874 142.52199L60.471874 134.00636L62.20625 134.00636L62.20625 141.06886L66.51875 141.06886L66.51875 142.52199L60.471874 142.52199ZM67.47188 142.52199L67.47188 134.00636L69.20625 134.00636L69.20625 141.06886L73.51875 141.06886L73.51875 142.52199L67.47188 142.52199ZM74.40938 142.52199L74.40938 140.88136L76.06563 140.88136L76.06563 142.52199L74.40938 142.52199ZM77.39375 142.52199L77.39375 133.92824L80.00313 133.92824L81.55 139.78761L83.09688 133.92824L85.69063 133.92824L85.69063 142.52199L84.08125 142.52199L84.08125 135.75636L82.37813 142.52199L80.70625 142.52199L79.01875 135.75636L79.01875 142.52199L77.39375 142.52199ZM87.39375 142.52199L87.39375 133.92824L90.00313 133.92824L91.55 139.78761L93.09688 133.92824L95.69063 133.92824L95.69063 142.52199L94.08125 142.52199L94.08125 135.75636L92.37813 142.52199L90.70625 142.52199L89.01875 135.75636L89.01875 142.52199L87.39375 142.52199ZM97.40938 142.52199L97.40938 140.88136L99.06563 140.88136L99.06563 142.52199L97.40938 142.52199Z" fill-rule="nonzero"/><path fill="#999999" d="M19.425 176.69434L19.425 168.10059L22.20625 168.10059Q23.784374 168.10059 24.26875 168.22559Q25.003124 168.42871 25.503124 169.08496Q26.003124 169.72559 26.003124 170.74121Q26.003124 171.53809 25.70625 172.08496Q25.425 172.61621 24.9875 172.92871Q24.55 173.22559 24.08125 173.33496Q23.471874 173.45996 22.284374 173.45996L21.159374 173.45996L21.159374 176.69434L19.425 176.69434ZM21.159374 169.55371L21.159374 171.99121L22.1125 171.99121Q23.128124 171.99121 23.471874 171.86621Q23.83125 171.72559 24.01875 171.44434Q24.221874 171.14746 24.221874 170.77246Q24.221874 170.30371 23.940624 170.00684Q23.659374 169.69434 23.2375 169.61621Q22.940624 169.55371 22.003124 169.55371L21.159374 169.55371ZM28.9875 176.69434L27.346874 176.69434L27.346874 170.47559L28.878124 170.47559L28.878124 171.35059Q29.26875 170.72559 29.58125 170.53809Q29.89375 170.33496 30.284374 170.33496Q30.846874 170.33496 31.378124 170.64746L30.8625 172.06934Q30.440624 171.80371 30.096874 171.80371Q29.7375 171.80371 29.503124 172.00684Q29.26875 172.19434 29.128124 172.69434Q28.9875 173.17871 28.9875 174.77246L28.9875 176.69434ZM32.034374 173.49121Q32.034374 172.67871 32.440624 171.91309Q32.846874 171.13184 33.58125 170.74121Q34.315624 170.33496 35.2375 170.33496Q36.64375 170.33496 37.55 171.25684Q38.45625 172.16309 38.45625 173.56934Q38.45625 174.97559 37.534374 175.91309Q36.628124 176.83496 35.253124 176.83496Q34.39375 176.83496 33.6125 176.44434Q32.846874 176.05371 32.440624 175.31934Q32.034374 174.56934 32.034374 173.49121ZM33.721874 173.58496Q33.721874 174.50684 34.159374 175.00684Q34.596874 175.49121 35.2375 175.49121Q35.89375 175.49121 36.315624 175.00684Q36.753124 174.50684 36.753124 173.56934Q36.753124 172.66309 36.315624 172.17871Q35.89375 171.67871 35.2375 171.67871Q34.596874 171.67871 34.159374 172.17871Q33.721874 172.66309 33.721874 173.58496ZM39.253124 177.10059L41.14375 177.33496Q41.190624 177.66309 41.3625 177.78809Q41.596874 177.95996 42.096874 177.95996Q42.7375 177.95996 43.065624 177.77246Q43.284374 177.63184 43.39375 177.35059Q43.471874 177.14746 43.471874 176.60059L43.471874 175.67871Q42.721874 176.69434 41.596874 176.69434Q40.346874 176.69434 39.6125 175.63184Q39.05 174.78809 39.05 173.55371Q39.05 171.97559 39.8 171.16309Q40.55 170.33496 41.675 170.33496Q42.815624 170.33496 43.565624 171.35059L43.565624 170.47559L45.1125 170.47559L45.1125 176.05371Q45.1125 177.16309 44.925 177.69434Q44.753124 178.24121 44.425 178.55371Q44.096874 178.86621 43.55 179.03809Q43.003124 179.22559 42.159374 179.22559Q40.58125 179.22559 39.909374 178.67871Q39.253124 178.13184 39.253124 177.30371Q39.253124 177.22559 39.253124 177.10059ZM40.7375 173.45996Q40.7375 174.44434 41.1125 174.91309Q41.503124 175.36621 42.065624 175.36621Q42.659374 175.36621 43.08125 174.89746Q43.503124 174.41309 43.503124 173.49121Q43.503124 172.52246 43.096874 172.05371Q42.70625 171.58496 42.096874 171.58496Q41.503124 171.58496 41.1125 172.05371Q40.7375 172.50684 40.7375 173.45996ZM47.9875 176.69434L46.346874 176.69434L46.346874 170.47559L47.878124 170.47559L47.878124 171.35059Q48.26875 170.72559 48.58125 170.53809Q48.89375 170.33496 49.284374 170.33496Q49.846874 170.33496 50.378124 170.64746L49.8625 172.06934Q49.440624 171.80371 49.096874 171.80371Q48.7375 171.80371 48.503124 172.00684Q48.26875 172.19434 48.128124 172.69434Q47.9875 173.17871 47.9875 174.77246L47.9875 176.69434ZM52.64375 172.36621L51.14375 172.10059Q51.39375 171.19434 52.003124 170.77246Q52.628124 170.33496 53.846874 170.33496Q54.940624 170.33496 55.471874 170.60059Q56.01875 170.85059 56.2375 171.25684Q56.45625 171.64746 56.45625 172.72559L56.440624 174.64746Q56.440624 175.47559 56.51875 175.86621Q56.596874 176.24121 56.815624 176.69434L55.190624 176.69434Q55.128124 176.52246 55.034374 176.20996Q54.9875 176.05371 54.971874 176.00684Q54.55 176.42871 54.065624 176.63184Q53.596874 176.83496 53.05 176.83496Q52.08125 176.83496 51.51875 176.31934Q50.971874 175.78809 50.971874 174.99121Q50.971874 174.45996 51.221874 174.05371Q51.4875 173.64746 51.940624 173.42871Q52.39375 173.19434 53.253124 173.03809Q54.39375 172.81934 54.846874 172.63184L54.846874 172.47559Q54.846874 171.99121 54.6125 171.78809Q54.378124 171.58496 53.721874 171.58496Q53.284374 171.58496 53.034374 171.75684Q52.8 171.92871 52.64375 172.36621ZM54.846874 173.70996Q54.534374 173.80371 53.846874 173.95996Q53.159374 174.10059 52.940624 174.24121Q52.628124 174.47559 52.628124 174.81934Q52.628124 175.16309 52.878124 175.42871Q53.14375 175.67871 53.534374 175.67871Q53.9875 175.67871 54.39375 175.38184Q54.690624 175.16309 54.784374 174.83496Q54.846874 174.63184 54.846874 174.03809L54.846874 173.70996ZM58.284374 170.47559L59.8 170.47559L59.8 171.31934Q60.628124 170.33496 61.753124 170.33496Q62.346874 170.33496 62.784374 170.58496Q63.221874 170.81934 63.503124 171.31934Q63.909374 170.81934 64.37813 170.58496Q64.8625 170.33496 65.40938 170.33496Q66.08125 170.33496 66.55 170.61621Q67.03438 170.88184 67.26875 171.42871Q67.44063 171.81934 67.44063 172.70996L67.44063 176.69434L65.8 176.69434L65.8 173.13184Q65.8 172.20996 65.62813 171.94434Q65.39375 171.58496 64.925 171.58496Q64.58125 171.58496 64.26875 171.80371Q63.971874 172.00684 63.83125 172.41309Q63.690624 172.81934 63.690624 173.70996L63.690624 176.69434L62.05 176.69434L62.05 173.28809Q62.05 172.38184 61.95625 172.11621Q61.878124 171.85059 61.690624 171.72559Q61.503124 171.58496 61.190624 171.58496Q60.815624 171.58496 60.503124 171.80371Q60.20625 172.00684 60.065624 172.39746Q59.940624 172.77246 59.940624 173.66309L59.940624 176.69434L58.284374 176.69434L58.284374 170.47559ZM70.64375 172.36621L69.14375 172.10059Q69.39375 171.19434 70.00313 170.77246Q70.62813 170.33496 71.84688 170.33496Q72.94063 170.33496 73.47188 170.60059Q74.01875 170.85059 74.2375 171.25684Q74.45625 171.64746 74.45625 172.72559L74.44063 174.64746Q74.44063 175.47559 74.51875 175.86621Q74.59688 176.24121 74.81563 176.69434L73.19063 176.69434Q73.12813 176.52246 73.03438 176.20996Q72.9875 176.05371 72.97188 176.00684Q72.55 176.42871 72.06563 176.63184Q71.59688 176.83496 71.05 176.83496Q70.08125 176.83496 69.51875 176.31934Q68.97188 175.78809 68.97188 174.99121Q68.97188 174.45996 69.22188 174.05371Q69.4875 173.64746 69.94063 173.42871Q70.39375 173.19434 71.25313 173.03809Q72.39375 172.81934 72.84688 172.63184L72.84688 172.47559Q72.84688 171.99121 72.6125 171.78809Q72.37813 171.58496 71.72188 171.58496Q71.28438 171.58496 71.03438 171.75684Q70.8 171.92871 70.64375 172.36621ZM72.84688 173.70996Q72.53438 173.80371 71.84688 173.95996Q71.15938 174.10059 70.94063 174.24121Q70.62813 174.47559 70.62813 174.81934Q70.62813 175.16309 70.87813 175.42871Q71.14375 175.67871 71.53438 175.67871Q71.9875 175.67871 72.39375 175.38184Q72.69063 175.16309 72.78438 174.83496Q72.84688 174.63184 72.84688 174.03809L72.84688 173.70996ZM81.83125 172.30371L80.22188 172.60059Q80.12813 172.11621 79.83125 171.88184Q79.55 171.63184 79.09688 171.63184Q78.47188 171.63184 78.09688 172.05371Q77.7375 172.47559 77.7375 173.47559Q77.7375 174.58496 78.1125 175.03809Q78.4875 175.49121 79.1125 175.49121Q79.58125 175.49121 79.87813 175.22559Q80.175 174.95996 80.3 174.30371L81.925 174.58496Q81.675 175.69434 80.95625 176.27246Q80.2375 176.83496 79.03438 176.83496Q77.675 176.83496 76.8625 175.97559Q76.05 175.11621 76.05 173.58496Q76.05 172.05371 76.8625 171.19434Q77.675 170.33496 79.06563 170.33496Q80.20625 170.33496 80.87813 170.81934Q81.55 171.30371 81.83125 172.30371ZM83.40938 169.63184L83.40938 168.10059L85.06563 168.10059L85.06563 169.63184L83.40938 169.63184ZM83.40938 176.69434L83.40938 170.47559L85.06563 170.47559L85.06563 176.69434L83.40938 176.69434ZM86.03438 173.49121Q86.03438 172.67871 86.44063 171.91309Q86.84688 171.13184 87.58125 170.74121Q88.31563 170.33496 89.2375 170.33496Q90.64375 170.33496 91.55 171.25684Q92.45625 172.16309 92.45625 173.56934Q92.45625 174.97559 91.53438 175.91309Q90.62813 176.83496 89.25313 176.83496Q88.39375 176.83496 87.6125 176.44434Q86.84688 176.05371 86.44063 175.31934Q86.03438 174.56934 86.03438 173.49121ZM87.72188 173.58496Q87.72188 174.50684 88.15938 175.00684Q88.59688 175.49121 89.2375 175.49121Q89.89375 175.49121 90.31563 175.00684Q90.75313 174.50684 90.75313 173.56934Q90.75313 172.66309 90.31563 172.17871Q89.89375 171.67871 89.2375 171.67871Q88.59688 171.67871 88.15938 172.17871Q87.72188 172.66309 87.72188 173.58496ZM88.40938 169.70996L89.22188 167.95996L91.06563 167.95996L89.45625 169.70996L88.40938 169.70996ZM99.06563 176.69434L97.425 176.69434L97.425 173.52246Q97.425 172.50684 97.31563 172.20996Q97.22188 171.91309 96.97188 171.75684Q96.7375 171.58496 96.40938 171.58496Q95.97188 171.58496 95.62813 171.81934Q95.3 172.05371 95.175 172.44434Q95.05 172.83496 95.05 173.88184L95.05 176.69434L93.39375 176.69434L93.39375 170.47559L94.925 170.47559L94.925 171.38184Q95.7375 170.33496 96.9875 170.33496Q97.51875 170.33496 97.97188 170.53809Q98.425 170.72559 98.65938 171.03809Q98.89375 171.33496 98.97188 171.72559Q99.06563 172.10059 99.06563 172.81934L99.06563 176.69434Z" fill-rule="nonzero"/><path fill="#999999" d="M79.425 210.86667L79.425 202.27292L85.8 202.27292L85.8 203.72604L81.15938 203.72604L81.15938 205.6323L85.47188 205.6323L85.47188 207.08542L81.15938 207.08542L81.15938 209.41354L85.95625 209.41354L85.95625 210.86667L79.425 210.86667ZM86.40938 210.86667L86.40938 209.22604L88.06563 209.22604L88.06563 210.86667L86.40938 210.86667ZM89.425 202.27292L92.58125 202.27292Q93.65938 202.27292 94.22188 202.4448Q94.97188 202.66354 95.50313 203.24167Q96.05 203.80417 96.33125 204.6323Q96.6125 205.4448 96.6125 206.64792Q96.6125 207.71042 96.3625 208.47604Q96.03438 209.41354 95.44063 209.99167Q94.9875 210.4448 94.22188 210.67917Q93.64375 210.86667 92.675 210.86667L89.425 210.86667L89.425 202.27292ZM91.15938 203.72604L91.15938 209.41354L92.44063 209.41354Q93.175 209.41354 93.50313 209.33542Q93.925 209.22604 94.19063 208.97604Q94.47188 208.72604 94.64375 208.14792Q94.83125 207.5698 94.83125 206.5698Q94.83125 205.58542 94.64375 205.05417Q94.47188 204.5073 94.15938 204.21042Q93.84688 203.91354 93.3625 203.80417Q92.9875 203.72604 91.925 203.72604L91.15938 203.72604ZM97.40938 210.86667L97.40938 209.22604L99.06563 209.22604L99.06563 210.86667L97.40938 210.86667Z" fill-rule="nonzero"/><path fill="#999999" d="M22.425 245.039L22.425 236.44525L25.20625 236.44525Q26.784374 236.44525 27.26875 236.57025Q28.003124 236.77338 28.503124 237.42963Q29.003124 238.07025 29.003124 239.08588Q29.003124 239.88275 28.70625 240.42963Q28.425 240.96088 27.9875 241.27338Q27.55 241.57025 27.08125 241.67963Q26.471874 241.80463 25.284374 241.80463L24.159374 241.80463L24.159374 245.039L22.425 245.039ZM24.159374 237.89838L24.159374 240.33588L25.1125 240.33588Q26.128124 240.33588 26.471874 240.21088Q26.83125 240.07025 27.01875 239.789Q27.221874 239.49213 27.221874 239.11713Q27.221874 238.64838 26.940624 238.3515Q26.659374 238.039 26.2375 237.96088Q25.940624 237.89838 25.003124 237.89838L24.159374 237.89838ZM30.409374 245.039L30.409374 236.44525L32.065624 236.44525L32.065624 245.039L30.409374 245.039ZM34.64375 240.71088L33.14375 240.44525Q33.39375 239.539 34.003124 239.11713Q34.628124 238.67963 35.846874 238.67963Q36.940624 238.67963 37.471874 238.94525Q38.01875 239.19525 38.2375 239.6015Q38.45625 239.99213 38.45625 241.07025L38.440624 242.99213Q38.440624 243.82025 38.51875 244.21088Q38.596874 244.58588 38.815624 245.039L37.190624 245.039Q37.128124 244.86713 37.034374 244.55463Q36.9875 244.39838 36.971874 244.3515Q36.55 244.77338 36.065624 244.9765Q35.596874 245.17963 35.05 245.17963Q34.08125 245.17963 33.51875 244.664Q32.971874 244.13275 32.971874 243.33588Q32.971874 242.80463 33.221874 242.39838Q33.4875 241.99213 33.940624 241.77338Q34.39375 241.539 35.253124 241.38275Q36.39375 241.164 36.846874 240.9765L36.846874 240.82025Q36.846874 240.33588 36.6125 240.13275Q36.378124 239.92963 35.721874 239.92963Q35.284374 239.92963 35.034374 240.1015Q34.8 240.27338 34.64375 240.71088ZM36.846874 242.05463Q36.534374 242.14838 35.846874 242.30463Q35.159374 242.44525 34.940624 242.58588Q34.628124 242.82025 34.628124 243.164Q34.628124 243.50775 34.878124 243.77338Q35.14375 244.02338 35.534374 244.02338Q35.9875 244.02338 36.39375 243.7265Q36.690624 243.50775 36.784374 243.17963Q36.846874 242.9765 36.846874 242.38275L36.846874 242.05463ZM46.065624 245.039L44.425 245.039L44.425 241.86713Q44.425 240.8515 44.315624 240.55463Q44.221874 240.25775 43.971874 240.1015Q43.7375 239.92963 43.409374 239.92963Q42.971874 239.92963 42.628124 240.164Q42.3 240.39838 42.175 240.789Q42.05 241.17963 42.05 242.2265L42.05 245.039L40.39375 245.039L40.39375 238.82025L41.925 238.82025L41.925 239.7265Q42.7375 238.67963 43.9875 238.67963Q44.51875 238.67963 44.971874 238.88275Q45.425 239.07025 45.659374 239.38275Q45.89375 239.67963 45.971874 240.07025Q46.065624 240.44525 46.065624 241.164L46.065624 245.039ZM50.3625 238.82025L51.89375 238.82025L51.89375 239.7265Q52.20625 239.25775 52.70625 238.9765Q53.221874 238.67963 53.846874 238.67963Q54.925 238.67963 55.675 239.52338Q56.440624 240.36713 56.440624 241.89838Q56.440624 243.44525 55.675 244.32025Q54.909374 245.17963 53.83125 245.17963Q53.315624 245.17963 52.89375 244.9765Q52.471874 244.77338 52.01875 244.27338L52.01875 247.414L50.3625 247.414L50.3625 238.82025ZM51.9875 241.82025Q51.9875 242.86713 52.409374 243.36713Q52.83125 243.86713 53.425 243.86713Q54.003124 243.86713 54.378124 243.414Q54.753124 242.94525 54.753124 241.89838Q54.753124 240.92963 54.3625 240.46088Q53.971874 239.9765 53.39375 239.9765Q52.784374 239.9765 52.378124 240.44525Q51.9875 240.914 51.9875 241.82025ZM58.9875 245.039L57.346874 245.039L57.346874 238.82025L58.878124 238.82025L58.878124 239.69525Q59.26875 239.07025 59.58125 238.88275Q59.89375 238.67963 60.284374 238.67963Q60.846874 238.67963 61.378124 238.99213L60.8625 240.414Q60.440624 240.14838 60.096874 240.14838Q59.7375 240.14838 59.503124 240.3515Q59.26875 240.539 59.128124 241.039Q58.9875 241.52338 58.9875 243.11713L58.9875 245.039ZM62.034374 241.83588Q62.034374 241.02338 62.440624 240.25775Q62.846874 239.4765 63.58125 239.08588Q64.31563 238.67963 65.2375 238.67963Q66.64375 238.67963 67.55 239.6015Q68.45625 240.50775 68.45625 241.914Q68.45625 243.32025 67.53438 244.25775Q66.62813 245.17963 65.25313 245.17963Q64.39375 245.17963 63.6125 244.789Q62.846874 244.39838 62.440624 243.664Q62.034374 242.914 62.034374 241.83588ZM63.721874 241.92963Q63.721874 242.8515 64.15938 243.3515Q64.59688 243.83588 65.2375 243.83588Q65.89375 243.83588 66.31563 243.3515Q66.75313 242.8515 66.75313 241.914Q66.75313 241.00775 66.31563 240.52338Q65.89375 240.02338 65.2375 240.02338Q64.59688 240.02338 64.15938 240.52338Q63.721874 241.00775 63.721874 241.92963ZM68.62813 238.82025L70.37813 238.82025L71.87813 243.2265L73.33125 238.82025L75.03438 238.82025L72.83125 244.80463L72.44063 245.88275Q72.22188 246.42963 72.01875 246.71088Q71.83125 247.00775 71.56563 247.17963Q71.31563 247.36713 70.94063 247.46088Q70.58125 247.57025 70.1125 247.57025Q69.62813 247.57025 69.175 247.46088L69.03438 246.17963Q69.425 246.25775 69.72188 246.25775Q70.3 246.25775 70.56563 245.914Q70.84688 245.58588 71.00313 245.05463L68.62813 238.82025ZM79.01875 243.05463L80.65938 243.33588Q80.34688 244.24213 79.65938 244.71088Q78.97188 245.17963 77.95625 245.17963Q76.33125 245.17963 75.55 244.11713Q74.925 243.27338 74.925 241.9765Q74.925 240.42963 75.7375 239.55463Q76.55 238.67963 77.78438 238.67963Q79.175 238.67963 79.97188 239.6015Q80.78438 240.50775 80.7375 242.39838L76.6125 242.39838Q76.64375 243.13275 77.01875 243.539Q77.39375 243.94525 77.97188 243.94525Q78.34688 243.94525 78.6125 243.74213Q78.87813 243.52338 79.01875 243.05463ZM79.1125 241.39838Q79.09688 240.67963 78.7375 240.30463Q78.39375 239.92963 77.87813 239.92963Q77.34688 239.92963 76.9875 240.32025Q76.64375 240.7265 76.64375 241.39838L79.1125 241.39838ZM87.83125 240.64838L86.22188 240.94525Q86.12813 240.46088 85.83125 240.2265Q85.55 239.9765 85.09688 239.9765Q84.47188 239.9765 84.09688 240.39838Q83.7375 240.82025 83.7375 241.82025Q83.7375 242.92963 84.1125 243.38275Q84.4875 243.83588 85.1125 243.83588Q85.58125 243.83588 85.87813 243.57025Q86.175 243.30463 86.3 242.64838L87.925 242.92963Q87.675 244.039 86.95625 244.61713Q86.2375 245.17963 85.03438 245.17963Q83.675 245.17963 82.8625 244.32025Q82.05 243.46088 82.05 241.92963Q82.05 240.39838 82.8625 239.539Q83.675 238.67963 85.06563 238.67963Q86.20625 238.67963 86.87813 239.164Q87.55 239.64838 87.83125 240.64838ZM92.26875 238.82025L92.26875 240.13275L91.14375 240.13275L91.14375 242.63275Q91.14375 243.39838 91.175 243.52338Q91.20625 243.64838 91.31563 243.74213Q91.44063 243.82025 91.59688 243.82025Q91.83125 243.82025 92.25313 243.64838L92.39375 244.92963Q91.83125 245.17963 91.09688 245.17963Q90.65938 245.17963 90.3 245.039Q89.94063 244.88275 89.76875 244.64838Q89.6125 244.39838 89.53438 244.00775Q89.4875 243.71088 89.4875 242.83588L89.4875 240.13275L88.7375 240.13275L88.7375 238.82025L89.4875 238.82025L89.4875 237.58588L91.14375 236.61713L91.14375 238.82025L92.26875 238.82025ZM93.03438 241.83588Q93.03438 241.02338 93.44063 240.25775Q93.84688 239.4765 94.58125 239.08588Q95.31563 238.67963 96.2375 238.67963Q97.64375 238.67963 98.55 239.6015Q99.45625 240.50775 99.45625 241.914Q99.45625 243.32025 98.53438 244.25775Q97.62813 245.17963 96.25313 245.17963Q95.39375 245.17963 94.6125 244.789Q93.84688 244.39838 93.44063 243.664Q93.03438 242.914 93.03438 241.83588ZM94.72188 241.92963Q94.72188 242.8515 95.15938 243.3515Q95.59688 243.83588 96.2375 243.83588Q96.89375 243.83588 97.31563 243.3515Q97.75313 242.8515 97.75313 241.914Q97.75313 241.00775 97.31563 240.52338Q96.89375 240.02338 96.2375 240.02338Q95.59688 240.02338 95.15938 240.52338Q94.72188 241.00775 94.72188 241.92963Z" fill-rule="nonzero"/><path fill="#999999" d="M65.6125 279.21133L62.55 270.61758L64.425 270.61758L66.59688 276.97696L68.70625 270.61758L70.55 270.61758L67.47188 279.21133L65.6125 279.21133ZM72.64375 274.8832L71.14375 274.61758Q71.39375 273.71133 72.00313 273.28946Q72.62813 272.85196 73.84688 272.85196Q74.94063 272.85196 75.47188 273.11758Q76.01875 273.36758 76.2375 273.77383Q76.45625 274.16446 76.45625 275.24258L76.44063 277.16446Q76.44063 277.99258 76.51875 278.3832Q76.59688 278.7582 76.81563 279.21133L75.19063 279.21133Q75.12813 279.03946 75.03438 278.72696Q74.9875 278.5707 74.97188 278.52383Q74.55 278.9457 74.06563 279.14883Q73.59688 279.35196 73.05 279.35196Q72.08125 279.35196 71.51875 278.83633Q70.97188 278.30508 70.97188 277.5082Q70.97188 276.97696 71.22188 276.5707Q71.4875 276.16446 71.94063 275.9457Q72.39375 275.71133 73.25313 275.55508Q74.39375 275.33633 74.84688 275.14883L74.84688 274.99258Q74.84688 274.5082 74.6125 274.30508Q74.37813 274.10196 73.72188 274.10196Q73.28438 274.10196 73.03438 274.27383Q72.8 274.4457 72.64375 274.8832ZM74.84688 276.22696Q74.53438 276.3207 73.84688 276.47696Q73.15938 276.61758 72.94063 276.7582Q72.62813 276.99258 72.62813 277.33633Q72.62813 277.68008 72.87813 277.9457Q73.14375 278.1957 73.53438 278.1957Q73.9875 278.1957 74.39375 277.89883Q74.69063 277.68008 74.78438 277.35196Q74.84688 277.14883 74.84688 276.55508L74.84688 276.22696ZM79.9875 279.21133L78.34688 279.21133L78.34688 272.99258L79.87813 272.99258L79.87813 273.86758Q80.26875 273.24258 80.58125 273.05508Q80.89375 272.85196 81.28438 272.85196Q81.84688 272.85196 82.37813 273.16446L81.8625 274.58633Q81.44063 274.3207 81.09688 274.3207Q80.7375 274.3207 80.50313 274.52383Q80.26875 274.71133 80.12813 275.21133Q79.9875 275.6957 79.9875 277.28946L79.9875 279.21133ZM83.40938 272.14883L83.40938 270.61758L85.06563 270.61758L85.06563 272.14883L83.40938 272.14883ZM83.40938 279.21133L83.40938 272.99258L85.06563 272.99258L85.06563 279.21133L83.40938 279.21133ZM86.03438 276.0082Q86.03438 275.1957 86.44063 274.43008Q86.84688 273.64883 87.58125 273.2582Q88.31563 272.85196 89.2375 272.85196Q90.64375 272.85196 91.55 273.77383Q92.45625 274.68008 92.45625 276.08633Q92.45625 277.49258 91.53438 278.43008Q90.62813 279.35196 89.25313 279.35196Q88.39375 279.35196 87.6125 278.96133Q86.84688 278.5707 86.44063 277.83633Q86.03438 277.08633 86.03438 276.0082ZM87.72188 276.10196Q87.72188 277.02383 88.15938 277.52383Q88.59688 278.0082 89.2375 278.0082Q89.89375 278.0082 90.31563 277.52383Q90.75313 277.02383 90.75313 276.08633Q90.75313 275.18008 90.31563 274.6957Q89.89375 274.1957 89.2375 274.1957Q88.59688 274.1957 88.15938 274.6957Q87.72188 275.18008 87.72188 276.10196ZM92.83125 277.43008L94.4875 277.18008Q94.59688 277.66446 94.90938 277.91446Q95.2375 278.16446 95.81563 278.16446Q96.45625 278.16446 96.76875 277.93008Q96.9875 277.7582 96.9875 277.49258Q96.9875 277.30508 96.87813 277.18008Q96.75313 277.05508 96.33125 276.96133Q94.33125 276.52383 93.8 276.16446Q93.06563 275.64883 93.06563 274.7582Q93.06563 273.9457 93.69063 273.39883Q94.33125 272.85196 95.675 272.85196Q96.95625 272.85196 97.58125 273.27383Q98.20625 273.68008 98.44063 274.49258L96.87813 274.77383Q96.78438 274.41446 96.50313 274.22696Q96.22188 274.02383 95.70625 274.02383Q95.06563 274.02383 94.78438 274.21133Q94.59688 274.33633 94.59688 274.53946Q94.59688 274.72696 94.75313 274.85196Q94.97188 275.0082 96.28438 275.30508Q97.6125 275.60196 98.12813 276.03946Q98.64375 276.47696 98.64375 277.2582Q98.64375 278.11758 97.925 278.74258Q97.22188 279.35196 95.81563 279.35196Q94.55 279.35196 93.8 278.83633Q93.06563 278.3207 92.83125 277.43008Z" fill-rule="nonzero"/><path fill="#999999" d="M74.3625 313.38367L74.3625 306.24304L71.81563 306.24304L71.81563 304.78992L78.62813 304.78992L78.62813 306.24304L76.09688 306.24304L76.09688 313.38367L74.3625 313.38367ZM79.03438 310.18054Q79.03438 309.36804 79.44063 308.60242Q79.84688 307.82117 80.58125 307.43054Q81.31563 307.0243 82.2375 307.0243Q83.64375 307.0243 84.55 307.94617Q85.45625 308.85242 85.45625 310.25867Q85.45625 311.66492 84.53438 312.60242Q83.62813 313.5243 82.25313 313.5243Q81.39375 313.5243 80.6125 313.13367Q79.84688 312.74304 79.44063 312.00867Q79.03438 311.25867 79.03438 310.18054ZM80.72188 310.2743Q80.72188 311.19617 81.15938 311.69617Q81.59688 312.18054 82.2375 312.18054Q82.89375 312.18054 83.31563 311.69617Q83.75313 311.19617 83.75313 310.25867Q83.75313 309.35242 83.31563 308.86804Q82.89375 308.36804 82.2375 308.36804Q81.59688 308.36804 81.15938 308.86804Q80.72188 309.35242 80.72188 310.2743ZM89.26875 307.16492L89.26875 308.47742L88.14375 308.47742L88.14375 310.97742Q88.14375 311.74304 88.175 311.86804Q88.20625 311.99304 88.31563 312.0868Q88.44063 312.16492 88.59688 312.16492Q88.83125 312.16492 89.25313 311.99304L89.39375 313.2743Q88.83125 313.5243 88.09688 313.5243Q87.65938 313.5243 87.3 313.38367Q86.94063 313.22742 86.76875 312.99304Q86.6125 312.74304 86.53438 312.35242Q86.4875 312.05554 86.4875 311.18054L86.4875 308.47742L85.7375 308.47742L85.7375 307.16492L86.4875 307.16492L86.4875 305.93054L88.14375 304.9618L88.14375 307.16492L89.26875 307.16492ZM91.64375 309.05554L90.14375 308.78992Q90.39375 307.88367 91.00313 307.4618Q91.62813 307.0243 92.84688 307.0243Q93.94063 307.0243 94.47188 307.28992Q95.01875 307.53992 95.2375 307.94617Q95.45625 308.3368 95.45625 309.41492L95.44063 311.3368Q95.44063 312.16492 95.51875 312.55554Q95.59688 312.93054 95.81563 313.38367L94.19063 313.38367Q94.12813 313.2118 94.03438 312.8993Q93.9875 312.74304 93.97188 312.69617Q93.55 313.11804 93.06563 313.32117Q92.59688 313.5243 92.05 313.5243Q91.08125 313.5243 90.51875 313.00867Q89.97188 312.47742 89.97188 311.68054Q89.97188 311.1493 90.22188 310.74304Q90.4875 310.3368 90.94063 310.11804Q91.39375 309.88367 92.25313 309.72742Q93.39375 309.50867 93.84688 309.32117L93.84688 309.16492Q93.84688 308.68054 93.6125 308.47742Q93.37813 308.2743 92.72188 308.2743Q92.28438 308.2743 92.03438 308.44617Q91.8 308.61804 91.64375 309.05554ZM93.84688 310.3993Q93.53438 310.49304 92.84688 310.6493Q92.15938 310.78992 91.94063 310.93054Q91.62813 311.16492 91.62813 311.50867Q91.62813 311.85242 91.87813 312.11804Q92.14375 312.36804 92.53438 312.36804Q92.9875 312.36804 93.39375 312.07117Q93.69063 311.85242 93.78438 311.5243Q93.84688 311.32117 93.84688 310.72742L93.84688 310.3993ZM97.40938 313.38367L97.40938 304.78992L99.06563 304.78992L99.06563 313.38367L97.40938 313.38367Z" fill-rule="nonzero"/><path fill="#999999" d="M105.34688 340.825Q106.59688 340.825 107.3 341.71564Q108.12813 342.7625 108.12813 345.21564Q108.12813 347.65314 107.28438 348.71564Q106.59688 349.59064 105.34688 349.59064Q104.09688 349.59064 103.31563 348.6375Q102.55 347.66876 102.55 345.2Q102.55 342.7625 103.39375 341.7Q104.09688 340.825 105.34688 340.825ZM105.34688 342.1844Q105.05 342.1844 104.81563 342.3875Q104.58125 342.575 104.44063 343.0594Q104.28438 343.7 104.28438 345.21564Q104.28438 346.73126 104.425 347.29376Q104.58125 347.85626 104.81563 348.04376Q105.05 348.23126 105.34688 348.23126Q105.64375 348.23126 105.87813 348.04376Q106.1125 347.85626 106.2375 347.35626Q106.40938 346.73126 106.40938 345.21564Q106.40938 343.7 106.25313 343.1375Q106.1125 342.575 105.87813 342.3875Q105.64375 342.1844 105.34688 342.1844Z" fill-rule="nonzero"/><path fill="#999999" d="M218.05624 347.2469L219.69687 347.075Q219.775 347.6219 220.11874 347.95Q220.4625 348.27814 220.91562 348.27814Q221.43124 348.27814 221.79062 347.85626Q222.15 347.4344 222.15 346.59064Q222.15 345.8094 221.79062 345.41876Q221.43124 345.0125 220.86874 345.0125Q220.15 345.0125 219.5875 345.6375L218.25937 345.45L219.10312 340.98126L223.4625 340.98126L223.4625 342.5125L220.35312 342.5125L220.0875 343.98126Q220.65 343.7 221.2125 343.7Q222.30624 343.7 223.07187 344.4969Q223.8375 345.29376 223.8375 346.5594Q223.8375 347.6219 223.22812 348.46564Q222.38437 349.59064 220.9 349.59064Q219.7125 349.59064 218.9625 348.96564Q218.2125 348.325 218.05624 347.2469ZM227.82187 340.825Q229.07187 340.825 229.775 341.71564Q230.60312 342.7625 230.60312 345.21564Q230.60312 347.65314 229.75937 348.71564Q229.07187 349.59064 227.82187 349.59064Q226.57187 349.59064 225.79062 348.6375Q225.025 347.66876 225.025 345.2Q225.025 342.7625 225.86874 341.7Q226.57187 340.825 227.82187 340.825ZM227.82187 342.1844Q227.525 342.1844 227.29062 342.3875Q227.05624 342.575 226.91562 343.0594Q226.75937 343.7 226.75937 345.21564Q226.75937 346.73126 226.9 347.29376Q227.05624 347.85626 227.29062 348.04376Q227.525 348.23126 227.82187 348.23126Q228.11874 348.23126 228.35312 348.04376Q228.5875 347.85626 228.7125 347.35626Q228.88437 346.73126 228.88437 345.21564Q228.88437 343.7 228.72812 343.1375Q228.5875 342.575 228.35312 342.3875Q228.11874 342.1844 227.82187 342.1844Z" fill-rule="nonzero"/><path fill="#999999" d="M337.71875 349.45L336.07812 349.45L336.07812 343.2469Q335.17188 344.09064 333.95312 344.4969L333.95312 342.9969Q334.59375 342.79376 335.34375 342.2Q336.10938 341.60626 336.39062 340.825L337.71875 340.825L337.71875 349.45ZM343.29688 340.825Q344.54688 340.825 345.25 341.71564Q346.07812 342.7625 346.07812 345.21564Q346.07812 347.65314 345.23438 348.71564Q344.54688 349.59064 343.29688 349.59064Q342.04688 349.59064 341.26562 348.6375Q340.5 347.66876 340.5 345.2Q340.5 342.7625 341.34375 341.7Q342.04688 340.825 343.29688 340.825ZM343.29688 342.1844Q343.0 342.1844 342.76562 342.3875Q342.53125 342.575 342.39062 343.0594Q342.23438 343.7 342.23438 345.21564Q342.23438 346.73126 342.375 347.29376Q342.53125 347.85626 342.76562 348.04376Q343.0 348.23126 343.29688 348.23126Q343.59375 348.23126 343.82812 348.04376Q344.0625 347.85626 344.1875 347.35626Q344.35938 346.73126 344.35938 345.21564Q344.35938 343.7 344.20312 343.1375Q344.0625 342.575 343.82812 342.3875Q343.59375 342.1844 343.29688 342.1844ZM350.29688 340.825Q351.54688 340.825 352.25 341.71564Q353.07812 342.7625 353.07812 345.21564Q353.07812 347.65314 352.23438 348.71564Q351.54688 349.59064 350.29688 349.59064Q349.04688 349.59064 348.26562 348.6375Q347.5 347.66876 347.5 345.2Q347.5 342.7625 348.34375 341.7Q349.04688 340.825 350.29688 340.825ZM350.29688 342.1844Q350.0 342.1844 349.76562 342.3875Q349.53125 342.575 349.39062 343.0594Q349.23438 343.7 349.23438 345.21564Q349.23438 346.73126 349.375 347.29376Q349.53125 347.85626 349.76562 348.04376Q350.0 348.23126 350.29688 348.23126Q350.59375 348.23126 350.82812 348.04376Q351.0625 347.85626 351.1875 347.35626Q351.35938 346.73126 351.35938 345.21564Q351.35938 343.7 351.20312 343.1375Q351.0625 342.575 350.82812 342.3875Q350.59375 342.1844 350.29688 342.1844Z" fill-rule="nonzero"/><path fill="#999999" d="M456.69376 349.45L455.05313 349.45L455.05313 343.2469Q454.14688 344.09064 452.92813 344.4969L452.92813 342.9969Q453.56876 342.79376 454.31876 342.2Q455.08438 341.60626 455.36563 340.825L456.69376 340.825L456.69376 349.45ZM459.50626 347.2469L461.14688 347.075Q461.225 347.6219 461.56876 347.95Q461.9125 348.27814 462.36563 348.27814Q462.88126 348.27814 463.24063 347.85626Q463.6 347.4344 463.6 346.59064Q463.6 345.8094 463.24063 345.41876Q462.88126 345.0125 462.31876 345.0125Q461.6 345.0125 461.0375 345.6375L459.70938 345.45L460.55313 340.98126L464.9125 340.98126L464.9125 342.5125L461.80313 342.5125L461.5375 343.98126Q462.1 343.7 462.6625 343.7Q463.75626 343.7 464.52188 344.4969Q465.2875 345.29376 465.2875 346.5594Q465.2875 347.6219 464.67813 348.46564Q463.83438 349.59064 462.35 349.59064Q461.1625 349.59064 460.4125 348.96564Q459.6625 348.325 459.50626 347.2469ZM469.27188 340.825Q470.52188 340.825 471.225 341.71564Q472.05313 342.7625 472.05313 345.21564Q472.05313 347.65314 471.20938 348.71564Q470.52188 349.59064 469.27188 349.59064Q468.02188 349.59064 467.24063 348.6375Q466.475 347.66876 466.475 345.2Q466.475 342.7625 467.31876 341.7Q468.02188 340.825 469.27188 340.825ZM469.27188 342.1844Q468.975 342.1844 468.74063 342.3875Q468.50626 342.575 468.36563 343.0594Q468.20938 343.7 468.20938 345.21564Q468.20938 346.73126 468.35 347.29376Q468.50626 347.85626 468.74063 348.04376Q468.975 348.23126 469.27188 348.23126Q469.56876 348.23126 469.80313 348.04376Q470.0375 347.85626 470.1625 347.35626Q470.33438 346.73126 470.33438 345.21564Q470.33438 343.7 470.17813 343.1375Q470.0375 342.575 469.80313 342.3875Q469.56876 342.1844 469.27188 342.1844Z" fill-rule="nonzero"/><path fill="#999999" d="M577.02814 347.91876L577.02814 349.45L571.2469 349.45Q571.34064 348.575 571.8094 347.8094Q572.27814 347.02814 573.66876 345.7469Q574.77814 344.71564 575.02814 344.34064Q575.3719 343.825 575.3719 343.325Q575.3719 342.77814 575.075 342.48126Q574.77814 342.1844 574.2625 342.1844Q573.7469 342.1844 573.4344 342.4969Q573.1375 342.8094 573.09064 343.52814L571.45 343.3719Q571.59064 342.0125 572.35626 341.41876Q573.1375 340.825 574.29376 340.825Q575.575 340.825 576.29376 341.5125Q577.02814 342.2 577.02814 343.21564Q577.02814 343.79376 576.8094 344.325Q576.60626 344.84064 576.15314 345.41876Q575.85626 345.79376 575.075 346.5125Q574.29376 347.23126 574.09064 347.46564Q573.8875 347.7 573.7469 347.91876L577.02814 347.91876ZM581.2469 340.825Q582.4969 340.825 583.2 341.71564Q584.02814 342.7625 584.02814 345.21564Q584.02814 347.65314 583.1844 348.71564Q582.4969 349.59064 581.2469 349.59064Q579.9969 349.59064 579.21564 348.6375Q578.45 347.66876 578.45 345.2Q578.45 342.7625 579.29376 341.7Q579.9969 340.825 581.2469 340.825ZM581.2469 342.1844Q580.95 342.1844 580.71564 342.3875Q580.48126 342.575 580.34064 343.0594Q580.1844 343.7 580.1844 345.21564Q580.1844 346.73126 580.325 347.29376Q580.48126 347.85626 580.71564 348.04376Q580.95 348.23126 581.2469 348.23126Q581.54376 348.23126 581.77814 348.04376Q582.0125 347.85626 582.1375 347.35626Q582.3094 346.73126 582.3094 345.21564Q582.3094 343.7 582.15314 343.1375Q582.0125 342.575 581.77814 342.3875Q581.54376 342.1844 581.2469 342.1844ZM588.2469 340.825Q589.4969 340.825 590.2 341.71564Q591.02814 342.7625 591.02814 345.21564Q591.02814 347.65314 590.1844 348.71564Q589.4969 349.59064 588.2469 349.59064Q586.9969 349.59064 586.21564 348.6375Q585.45 347.66876 585.45 345.2Q585.45 342.7625 586.29376 341.7Q586.9969 340.825 588.2469 340.825ZM588.2469 342.1844Q587.95 342.1844 587.71564 342.3875Q587.48126 342.575 587.34064 343.0594Q587.1844 343.7 587.1844 345.21564Q587.1844 346.73126 587.325 347.29376Q587.48126 347.85626 587.71564 348.04376Q587.95 348.23126 588.2469 348.23126Q588.54376 348.23126 588.77814 348.04376Q589.0125 347.85626 589.1375 347.35626Q589.3094 346.73126 589.3094 345.21564Q589.3094 343.7 589.15314 343.1375Q589.0125 342.575 588.77814 342.3875Q588.54376 342.1844 588.2469 342.1844Z" fill-rule="nonzero"/><path fill="#6fa8dc" d="M186.0 56.916668C186.0 56.364384 186.44771 55.916668 187.0 55.916668L197.0 55.916668C197.55229 55.916668 198.0 56.364384 198.0 56.916668L198.0 66.916664C198.0 67.46895 197.55229 67.916664 197.0 67.916664L187.0 67.916664C186.44771 67.916664 186.0 67.46895 186.0 66.916664Z" fill-rule="nonzero"/><path fill="#999999" d="M206.875 65.916664L206.875 57.322914L208.60938 57.322914L208.60938 60.71354L212.01562 60.71354L212.01562 57.322914L213.75 57.322914L213.75 65.916664L212.01562 65.916664L212.01562 62.166664L208.60938 62.166664L208.60938 65.916664L206.875 65.916664ZM214.48438 62.71354Q214.48438 61.90104 214.89062 61.135414Q215.29688 60.354164 216.03125 59.96354Q216.76562 59.55729 217.6875 59.55729Q219.09375 59.55729 220.0 60.479164Q220.90625 61.385414 220.90625 62.791664Q220.90625 64.197914 219.98438 65.135414Q219.07812 66.05729 217.70312 66.05729Q216.84375 66.05729 216.0625 65.666664Q215.29688 65.27604 214.89062 64.541664Q214.48438 63.791664 214.48438 62.71354ZM216.17188 62.80729Q216.17188 63.729164 216.60938 64.229164Q217.04688 64.71354 217.6875 64.71354Q218.34375 64.71354 218.76562 64.229164Q219.20312 63.729164 219.20312 62.791664Q219.20312 61.885414 218.76562 61.40104Q218.34375 60.90104 217.6875 60.90104Q217.04688 60.90104 216.60938 61.40104Q216.17188 61.885414 216.17188 62.80729ZM223.4375 65.916664L221.79688 65.916664L221.79688 59.697914L223.32812 59.697914L223.32812 60.572914Q223.71875 59.947914 224.03125 59.760414Q224.34375 59.55729 224.73438 59.55729Q225.29688 59.55729 225.82812 59.86979L225.3125 61.291664Q224.89062 61.02604 224.54688 61.02604Q224.1875 61.02604 223.95312 61.229164Q223.71875 61.416664 223.57812 61.916664Q223.4375 62.40104 223.4375 63.99479L223.4375 65.916664ZM228.09375 61.58854L226.59375 61.322914Q226.84375 60.416664 227.45312 59.99479Q228.07812 59.55729 229.29688 59.55729Q230.39062 59.55729 230.92188 59.822914Q231.46875 60.072914 231.6875 60.479164Q231.90625 60.86979 231.90625 61.947914L231.89062 63.86979Q231.89062 64.697914 231.96875 65.08854Q232.04688 65.46354 232.26562 65.916664L230.64062 65.916664Q230.57812 65.74479 230.48438 65.43229Q230.4375 65.27604 230.42188 65.229164Q230.0 65.65104 229.51562 65.854164Q229.04688 66.05729 228.5 66.05729Q227.53125 66.05729 226.96875 65.541664Q226.42188 65.010414 226.42188 64.21354Q226.42188 63.68229 226.67188 63.27604Q226.9375 62.86979 227.39062 62.65104Q227.84375 62.416664 228.70312 62.260414Q229.84375 62.041664 230.29688 61.854164L230.29688 61.697914Q230.29688 61.21354 230.0625 61.010414Q229.82812 60.80729 229.17188 60.80729Q228.73438 60.80729 228.48438 60.979164Q228.25 61.15104 228.09375 61.58854ZM230.29688 62.93229Q229.98438 63.02604 229.29688 63.18229Q228.60938 63.322914 228.39062 63.46354Q228.07812 63.697914 228.07812 64.041664Q228.07812 64.385414 228.32812 64.65104Q228.59375 64.90104 228.98438 64.90104Q229.4375 64.90104 229.84375 64.604164Q230.14062 64.385414 230.23438 64.05729Q230.29688 63.854164 230.29688 63.260414L230.29688 62.93229ZM233.28125 64.135414L234.9375 63.885414Q235.04688 64.36979 235.35938 64.61979Q235.6875 64.86979 236.26562 64.86979Q236.90625 64.86979 237.21875 64.635414Q237.4375 64.46354 237.4375 64.197914Q237.4375 64.010414 237.32812 63.885414Q237.20312 63.760414 236.78125 63.666664Q234.78125 63.229164 234.25 62.86979Q233.51562 62.354164 233.51562 61.46354Q233.51562 60.65104 234.14062 60.104164Q234.78125 59.55729 236.125 59.55729Q237.40625 59.55729 238.03125 59.979164Q238.65625 60.385414 238.89062 61.197914L237.32812 61.479164Q237.23438 61.11979 236.95312 60.93229Q236.67188 60.729164 236.15625 60.729164Q235.51562 60.729164 235.23438 60.916664Q235.04688 61.041664 235.04688 61.24479Q235.04688 61.43229 235.20312 61.55729Q235.42188 61.71354 236.73438 62.010414Q238.0625 62.30729 238.57812 62.74479Q239.09375 63.18229 239.09375 63.96354Q239.09375 64.822914 238.375 65.447914Q237.67188 66.05729 236.26562 66.05729Q235.0 66.05729 234.25 65.541664Q233.51562 65.02604 233.28125 64.135414ZM249.28125 61.52604L247.67188 61.822914Q247.57812 61.33854 247.28125 61.104164Q247.0 60.854164 246.54688 60.854164Q245.92188 60.854164 245.54688 61.27604Q245.1875 61.697914 245.1875 62.697914Q245.1875 63.80729 245.5625 64.260414Q245.9375 64.71354 246.5625 64.71354Q247.03125 64.71354 247.32812 64.447914Q247.625 64.18229 247.75 63.52604L249.375 63.80729Q249.125 64.916664 248.40625 65.49479Q247.6875 66.05729 246.48438 66.05729Q245.125 66.05729 244.3125 65.197914Q243.5 64.33854 243.5 62.80729Q243.5 61.27604 244.3125 60.416664Q245.125 59.55729 246.51562 59.55729Q247.65625 59.55729 248.32812 60.041664Q249.0 60.52604 249.28125 61.52604ZM252.09375 61.58854L250.59375 61.322914Q250.84375 60.416664 251.45312 59.99479Q252.07812 59.55729 253.29688 59.55729Q254.39062 59.55729 254.92188 59.822914Q255.46875 60.072914 255.6875 60.479164Q255.90625 60.86979 255.90625 61.947914L255.89062 63.86979Q255.89062 64.697914 255.96875 65.08854Q256.04688 65.46354 256.26562 65.916664L254.64062 65.916664Q254.57812 65.74479 254.48438 65.43229Q254.4375 65.27604 254.42188 65.229164Q254.0 65.65104 253.51562 65.854164Q253.04688 66.05729 252.5 66.05729Q251.53125 66.05729 250.96875 65.541664Q250.42188 65.010414 250.42188 64.21354Q250.42188 63.68229 250.67188 63.27604Q250.9375 62.86979 251.39062 62.65104Q251.84375 62.416664 252.70312 62.260414Q253.84375 62.041664 254.29688 61.854164L254.29688 61.697914Q254.29688 61.21354 254.0625 61.010414Q253.82812 60.80729 253.17188 60.80729Q252.73438 60.80729 252.48438 60.979164Q252.25 61.15104 252.09375 61.58854ZM254.29688 62.93229Q253.98438 63.02604 253.29688 63.18229Q252.60938 63.322914 252.39062 63.46354Q252.07812 63.697914 252.07812 64.041664Q252.07812 64.385414 252.32812 64.65104Q252.59375 64.90104 252.98438 64.90104Q253.4375 64.90104 253.84375 64.604164Q254.14062 64.385414 254.23438 64.05729Q254.29688 63.854164 254.29688 63.260414L254.29688 62.93229ZM257.85938 65.916664L257.85938 57.322914L259.51562 57.322914L259.51562 65.916664L257.85938 65.916664ZM266.28125 61.52604L264.67188 61.822914Q264.57812 61.33854 264.28125 61.104164Q264.0 60.854164 263.54688 60.854164Q262.92188 60.854164 262.54688 61.27604Q262.1875 61.697914 262.1875 62.697914Q262.1875 63.80729 262.5625 64.260414Q262.9375 64.71354 263.5625 64.71354Q264.03125 64.71354 264.32812 64.447914Q264.625 64.18229 264.75 63.52604L266.375 63.80729Q266.125 64.916664 265.40625 65.49479Q264.6875 66.05729 263.48438 66.05729Q262.125 66.05729 261.3125 65.197914Q260.5 64.33854 260.5 62.80729Q260.5 61.27604 261.3125 60.416664Q262.125 59.55729 263.51562 59.55729Q264.65625 59.55729 265.32812 60.041664Q266.0 60.52604 266.28125 61.52604ZM271.95312 65.916664L271.95312 64.979164Q271.625 65.479164 271.0625 65.77604Q270.51562 66.05729 269.89062 66.05729Q269.26562 66.05729 268.76562 65.791664Q268.26562 65.510414 268.04688 65.010414Q267.82812 64.510414 267.82812 63.635414L267.82812 59.697914L269.46875 59.697914L269.46875 62.55729Q269.46875 63.86979 269.5625 64.166664Q269.65625 64.46354 269.89062 64.635414Q270.14062 64.80729 270.5 64.80729Q270.92188 64.80729 271.25 64.572914Q271.59375 64.33854 271.71875 63.99479Q271.84375 63.65104 271.84375 62.322914L271.84375 59.697914L273.48438 59.697914L273.48438 65.916664L271.95312 65.916664ZM274.85938 65.916664L274.85938 57.322914L276.51562 57.322914L276.51562 65.916664L274.85938 65.916664ZM279.09375 61.58854L277.59375 61.322914Q277.84375 60.416664 278.45312 59.99479Q279.07812 59.55729 280.29688 59.55729Q281.39062 59.55729 281.92188 59.822914Q282.46875 60.072914 282.6875 60.479164Q282.90625 60.86979 282.90625 61.947914L282.89062 63.86979Q282.89062 64.697914 282.96875 65.08854Q283.04688 65.46354 283.26562 65.916664L281.64062 65.916664Q281.57812 65.74479 281.48438 65.43229Q281.4375 65.27604 281.42188 65.229164Q281.0 65.65104 280.51562 65.854164Q280.04688 66.05729 279.5 66.05729Q278.53125 66.05729 277.96875 65.541664Q277.42188 65.010414 277.42188 64.21354Q277.42188 63.68229 277.67188 63.27604Q277.9375 62.86979 278.39062 62.65104Q278.84375 62.416664 279.70312 62.260414Q280.84375 62.041664 281.29688 61.854164L281.29688 61.697914Q281.29688 61.21354 281.0625 61.010414Q280.82812 60.80729 280.17188 60.80729Q279.73438 60.80729 279.48438 60.979164Q279.25 61.15104 279.09375 61.58854ZM281.29688 62.93229Q280.98438 63.02604 280.29688 63.18229Q279.60938 63.322914 279.39062 63.46354Q279.07812 63.697914 279.07812 64.041664Q279.07812 64.385414 279.32812 64.65104Q279.59375 64.90104 279.98438 64.90104Q280.4375 64.90104 280.84375 64.604164Q281.14062 64.385414 281.23438 64.05729Q281.29688 63.854164 281.29688 63.260414L281.29688 62.93229ZM290.5625 65.916664L289.04688 65.916664L289.04688 64.99479Q288.65625 65.541664 288.14062 65.80729Q287.625 66.05729 287.09375 66.05729Q286.01562 66.05729 285.25 65.197914Q284.5 64.322914 284.5 62.77604Q284.5 61.197914 285.23438 60.385414Q285.98438 59.55729 287.125 59.55729Q288.15625 59.55729 288.92188 60.416664L288.92188 57.322914L290.5625 57.322914L290.5625 65.916664ZM286.17188 62.666664Q286.17188 63.666664 286.45312 64.104164Q286.84375 64.760414 287.5625 64.760414Q288.125 64.760414 288.51562 64.27604Q288.92188 63.791664 288.92188 62.822914Q288.92188 61.760414 288.53125 61.291664Q288.15625 60.80729 287.54688 60.80729Q286.96875 60.80729 286.5625 61.27604Q286.17188 61.74479 286.17188 62.666664ZM293.09375 61.58854L291.59375 61.322914Q291.84375 60.416664 292.45312 59.99479Q293.07812 59.55729 294.29688 59.55729Q295.39062 59.55729 295.92188 59.822914Q296.46875 60.072914 296.6875 60.479164Q296.90625 60.86979 296.90625 61.947914L296.89062 63.86979Q296.89062 64.697914 296.96875 65.08854Q297.04688 65.46354 297.26562 65.916664L295.64062 65.916664Q295.57812 65.74479 295.48438 65.43229Q295.4375 65.27604 295.42188 65.229164Q295.0 65.65104 294.51562 65.854164Q294.04688 66.05729 293.5 66.05729Q292.53125 66.05729 291.96875 65.541664Q291.42188 65.010414 291.42188 64.21354Q291.42188 63.68229 291.67188 63.27604Q291.9375 62.86979 292.39062 62.65104Q292.84375 62.416664 293.70312 62.260414Q294.84375 62.041664 295.29688 61.854164L295.29688 61.697914Q295.29688 61.21354 295.0625 61.010414Q294.82812 60.80729 294.17188 60.80729Q293.73438 60.80729 293.48438 60.979164Q293.25 61.15104 293.09375 61.58854ZM295.29688 62.93229Q294.98438 63.02604 294.29688 63.18229Q293.60938 63.322914 293.39062 63.46354Q293.07812 63.697914 293.07812 64.041664Q293.07812 64.385414 293.32812 64.65104Q293.59375 64.90104 293.98438 64.90104Q294.4375 64.90104 294.84375 64.604164Q295.14062 64.385414 295.23438 64.05729Q295.29688 63.854164 295.29688 63.260414L295.29688 62.93229ZM298.28125 64.135414L299.9375 63.885414Q300.04688 64.36979 300.35938 64.61979Q300.6875 64.86979 301.26562 64.86979Q301.90625 64.86979 302.21875 64.635414Q302.4375 64.46354 302.4375 64.197914Q302.4375 64.010414 302.32812 63.885414Q302.20312 63.760414 301.78125 63.666664Q299.78125 63.229164 299.25 62.86979Q298.51562 62.354164 298.51562 61.46354Q298.51562 60.65104 299.14062 60.104164Q299.78125 59.55729 301.125 59.55729Q302.40625 59.55729 303.03125 59.979164Q303.65625 60.385414 303.89062 61.197914L302.32812 61.479164Q302.23438 61.11979 301.95312 60.93229Q301.67188 60.729164 301.15625 60.729164Q300.51562 60.729164 300.23438 60.916664Q300.04688 61.041664 300.04688 61.24479Q300.04688 61.43229 300.20312 61.55729Q300.42188 61.71354 301.73438 62.010414Q303.0625 62.30729 303.57812 62.74479Q304.09375 63.18229 304.09375 63.96354Q304.09375 64.822914 303.375 65.447914Q302.67188 66.05729 301.26562 66.05729Q300.0 66.05729 299.25 65.541664Q298.51562 65.02604 298.28125 64.135414Z" fill-rule="nonzero"/><path fill="#d5a6bd" d="M321.0 56.916668C321.0 56.364384 321.44772 55.916668 322.0 55.916668L332.0 55.916668C332.55228 55.916668 333.0 56.364384 333.0 56.916668L333.0 66.916664C333.0 67.46895 332.55228 67.916664 332.0 67.916664L322.0 67.916664C321.44772 67.916664 321.0 67.46895 321.0 66.916664Z" fill-rule="nonzero"/><path fill="#999999" d="M341.875 65.916664L341.875 57.322914L343.60938 57.322914L343.60938 60.71354L347.01562 60.71354L347.01562 57.322914L348.75 57.322914L348.75 65.916664L347.01562 65.916664L347.01562 62.166664L343.60938 62.166664L343.60938 65.916664L341.875 65.916664ZM349.48438 62.71354Q349.48438 61.90104 349.89062 61.135414Q350.29688 60.354164 351.03125 59.96354Q351.76562 59.55729 352.6875 59.55729Q354.09375 59.55729 355.0 60.479164Q355.90625 61.385414 355.90625 62.791664Q355.90625 64.197914 354.98438 65.135414Q354.07812 66.05729 352.70312 66.05729Q351.84375 66.05729 351.0625 65.666664Q350.29688 65.27604 349.89062 64.541664Q349.48438 63.791664 349.48438 62.71354ZM351.17188 62.80729Q351.17188 63.729164 351.60938 64.229164Q352.04688 64.71354 352.6875 64.71354Q353.34375 64.71354 353.76562 64.229164Q354.20312 63.729164 354.20312 62.791664Q354.20312 61.885414 353.76562 61.40104Q353.34375 60.90104 352.6875 60.90104Q352.04688 60.90104 351.60938 61.40104Q351.17188 61.885414 351.17188 62.80729ZM358.4375 65.916664L356.79688 65.916664L356.79688 59.697914L358.32812 59.697914L358.32812 60.572914Q358.71875 59.947914 359.03125 59.760414Q359.34375 59.55729 359.73438 59.55729Q360.29688 59.55729 360.82812 59.86979L360.3125 61.291664Q359.89062 61.02604 359.54688 61.02604Q359.1875 61.02604 358.95312 61.229164Q358.71875 61.416664 358.57812 61.916664Q358.4375 62.40104 358.4375 63.99479L358.4375 65.916664ZM363.09375 61.58854L361.59375 61.322914Q361.84375 60.416664 362.45312 59.99479Q363.07812 59.55729 364.29688 59.55729Q365.39062 59.55729 365.92188 59.822914Q366.46875 60.072914 366.6875 60.479164Q366.90625 60.86979 366.90625 61.947914L366.89062 63.86979Q366.89062 64.697914 366.96875 65.08854Q367.04688 65.46354 367.26562 65.916664L365.64062 65.916664Q365.57812 65.74479 365.48438 65.43229Q365.4375 65.27604 365.42188 65.229164Q365.0 65.65104 364.51562 65.854164Q364.04688 66.05729 363.5 66.05729Q362.53125 66.05729 361.96875 65.541664Q361.42188 65.010414 361.42188 64.21354Q361.42188 63.68229 361.67188 63.27604Q361.9375 62.86979 362.39062 62.65104Q362.84375 62.416664 363.70312 62.260414Q364.84375 62.041664 365.29688 61.854164L365.29688 61.697914Q365.29688 61.21354 365.0625 61.010414Q364.82812 60.80729 364.17188 60.80729Q363.73438 60.80729 363.48438 60.979164Q363.25 61.15104 363.09375 61.58854ZM365.29688 62.93229Q364.98438 63.02604 364.29688 63.18229Q363.60938 63.322914 363.39062 63.46354Q363.07812 63.697914 363.07812 64.041664Q363.07812 64.385414 363.32812 64.65104Q363.59375 64.90104 363.98438 64.90104Q364.4375 64.90104 364.84375 64.604164Q365.14062 64.385414 365.23438 64.05729Q365.29688 63.854164 365.29688 63.260414L365.29688 62.93229ZM368.28125 64.135414L369.9375 63.885414Q370.04688 64.36979 370.35938 64.61979Q370.6875 64.86979 371.26562 64.86979Q371.90625 64.86979 372.21875 64.635414Q372.4375 64.46354 372.4375 64.197914Q372.4375 64.010414 372.32812 63.885414Q372.20312 63.760414 371.78125 63.666664Q369.78125 63.229164 369.25 62.86979Q368.51562 62.354164 368.51562 61.46354Q368.51562 60.65104 369.14062 60.104164Q369.78125 59.55729 371.125 59.55729Q372.40625 59.55729 373.03125 59.979164Q373.65625 60.385414 373.89062 61.197914L372.32812 61.479164Q372.23438 61.11979 371.95312 60.93229Q371.67188 60.729164 371.15625 60.729164Q370.51562 60.729164 370.23438 60.916664Q370.04688 61.041664 370.04688 61.24479Q370.04688 61.43229 370.20312 61.55729Q370.42188 61.71354 371.73438 62.010414Q373.0625 62.30729 373.57812 62.74479Q374.09375 63.18229 374.09375 63.96354Q374.09375 64.822914 373.375 65.447914Q372.67188 66.05729 371.26562 66.05729Q370.0 66.05729 369.25 65.541664Q368.51562 65.02604 368.28125 64.135414ZM380.4375 65.916664L378.79688 65.916664L378.79688 59.697914L380.32812 59.697914L380.32812 60.572914Q380.71875 59.947914 381.03125 59.760414Q381.34375 59.55729 381.73438 59.55729Q382.29688 59.55729 382.82812 59.86979L382.3125 61.291664Q381.89062 61.02604 381.54688 61.02604Q381.1875 61.02604 380.95312 61.229164Q380.71875 61.416664 380.57812 61.916664Q380.4375 62.40104 380.4375 63.99479L380.4375 65.916664ZM387.46875 63.93229L389.10938 64.21354Q388.79688 65.11979 388.10938 65.58854Q387.42188 66.05729 386.40625 66.05729Q384.78125 66.05729 384.0 64.99479Q383.375 64.15104 383.375 62.854164Q383.375 61.30729 384.1875 60.43229Q385.0 59.55729 386.23438 59.55729Q387.625 59.55729 388.42188 60.479164Q389.23438 61.385414 389.1875 63.27604L385.0625 63.27604Q385.09375 64.010414 385.46875 64.416664Q385.84375 64.822914 386.42188 64.822914Q386.79688 64.822914 387.0625 64.61979Q387.32812 64.40104 387.46875 63.93229ZM387.5625 62.27604Q387.54688 61.55729 387.1875 61.18229Q386.84375 60.80729 386.32812 60.80729Q385.79688 60.80729 385.4375 61.197914Q385.09375 61.604164 385.09375 62.27604L387.5625 62.27604ZM392.09375 61.58854L390.59375 61.322914Q390.84375 60.416664 391.45312 59.99479Q392.07812 59.55729 393.29688 59.55729Q394.39062 59.55729 394.92188 59.822914Q395.46875 60.072914 395.6875 60.479164Q395.90625 60.86979 395.90625 61.947914L395.89062 63.86979Q395.89062 64.697914 395.96875 65.08854Q396.04688 65.46354 396.26562 65.916664L394.64062 65.916664Q394.57812 65.74479 394.48438 65.43229Q394.4375 65.27604 394.42188 65.229164Q394.0 65.65104 393.51562 65.854164Q393.04688 66.05729 392.5 66.05729Q391.53125 66.05729 390.96875 65.541664Q390.42188 65.010414 390.42188 64.21354Q390.42188 63.68229 390.67188 63.27604Q390.9375 62.86979 391.39062 62.65104Q391.84375 62.416664 392.70312 62.260414Q393.84375 62.041664 394.29688 61.854164L394.29688 61.697914Q394.29688 61.21354 394.0625 61.010414Q393.82812 60.80729 393.17188 60.80729Q392.73438 60.80729 392.48438 60.979164Q392.25 61.15104 392.09375 61.58854ZM394.29688 62.93229Q393.98438 63.02604 393.29688 63.18229Q392.60938 63.322914 392.39062 63.46354Q392.07812 63.697914 392.07812 64.041664Q392.07812 64.385414 392.32812 64.65104Q392.59375 64.90104 392.98438 64.90104Q393.4375 64.90104 393.84375 64.604164Q394.14062 64.385414 394.23438 64.05729Q394.29688 63.854164 394.29688 63.260414L394.29688 62.93229ZM397.85938 65.916664L397.85938 57.322914L399.51562 57.322914L399.51562 65.916664L397.85938 65.916664ZM404.46875 63.93229L406.10938 64.21354Q405.79688 65.11979 405.10938 65.58854Q404.42188 66.05729 403.40625 66.05729Q401.78125 66.05729 401.0 64.99479Q400.375 64.15104 400.375 62.854164Q400.375 61.30729 401.1875 60.43229Q402.0 59.55729 403.23438 59.55729Q404.625 59.55729 405.42188 60.479164Q406.23438 61.385414 406.1875 63.27604L402.0625 63.27604Q402.09375 64.010414 402.46875 64.416664Q402.84375 64.822914 403.42188 64.822914Q403.79688 64.822914 404.0625 64.61979Q404.32812 64.40104 404.46875 63.93229ZM404.5625 62.27604Q404.54688 61.55729 404.1875 61.18229Q403.84375 60.80729 403.32812 60.80729Q402.79688 60.80729 402.4375 61.197914Q402.09375 61.604164 402.09375 62.27604L404.5625 62.27604ZM407.28125 64.135414L408.9375 63.885414Q409.04688 64.36979 409.35938 64.61979Q409.6875 64.86979 410.26562 64.86979Q410.90625 64.86979 411.21875 64.635414Q411.4375 64.46354 411.4375 64.197914Q411.4375 64.010414 411.32812 63.885414Q411.20312 63.760414 410.78125 63.666664Q408.78125 63.229164 408.25 62.86979Q407.51562 62.354164 407.51562 61.46354Q407.51562 60.65104 408.14062 60.104164Q408.78125 59.55729 410.125 59.55729Q411.40625 59.55729 412.03125 59.979164Q412.65625 60.385414 412.89062 61.197914L411.32812 61.479164Q411.23438 61.11979 410.95312 60.93229Q410.67188 60.729164 410.15625 60.729164Q409.51562 60.729164 409.23438 60.916664Q409.04688 61.041664 409.04688 61.24479Q409.04688 61.43229 409.20312 61.55729Q409.42188 61.71354 410.73438 62.010414Q412.0625 62.30729 412.57812 62.74479Q413.09375 63.18229 413.09375 63.96354Q413.09375 64.822914 412.375 65.447914Q411.67188 66.05729 410.26562 66.05729Q409.0 66.05729 408.25 65.541664Q407.51562 65.02604 407.28125 64.135414Z" fill-rule="nonzero"/><path fill="#7f7a7a" d="M197.34375 37.55L194.40625 37.55L194.40625 31.45625L188.70312 31.45625L188.70312 37.55L185.76562 37.55L185.76562 23.33125L188.70312 23.33125L188.70312 29.096874L194.40625 29.096874L194.40625 23.33125L197.34375 23.33125L197.34375 37.55ZM199.14062 32.175Q199.14062 30.596874 199.75 29.3625Q200.35938 28.128124 201.48438 27.45625Q202.625 26.784374 204.14062 26.784374Q206.28125 26.784374 207.625 28.096874Q208.98438 29.409374 209.14062 31.64375L209.15625 32.378124Q209.15625 34.8 207.79688 36.284374Q206.4375 37.753124 204.15625 37.753124Q201.875 37.753124 200.5 36.284374Q199.14062 34.815624 199.14062 32.3L199.14062 32.175ZM201.96875 32.378124Q201.96875 33.878124 202.53125 34.675Q203.09375 35.471874 204.15625 35.471874Q205.1875 35.471874 205.75 34.690624Q206.32812 33.89375 206.32812 32.175Q206.32812 30.690624 205.75 29.878124Q205.1875 29.065624 204.14062 29.065624Q203.09375 29.065624 202.53125 29.878124Q201.96875 30.690624 201.96875 32.378124ZM216.51562 29.628124Q215.95312 29.55 215.5 29.55Q213.90625 29.55 213.40625 30.628124L213.40625 37.55L210.57812 37.55L210.57812 26.9875L213.25 26.9875L213.32812 28.2375Q214.17188 26.784374 215.6875 26.784374Q216.15625 26.784374 216.5625 26.909374L216.51562 29.628124ZM223.70312 37.55Q223.51562 37.175 223.42188 36.596874Q222.40625 37.753124 220.76562 37.753124Q219.20312 37.753124 218.1875 36.846874Q217.17188 35.940624 217.17188 34.58125Q217.17188 32.89375 218.40625 32.003124Q219.65625 31.096874 222.01562 31.096874L223.3125 31.096874L223.3125 30.4875Q223.3125 29.753124 222.9375 29.315624Q222.5625 28.878124 221.75 28.878124Q221.03125 28.878124 220.625 29.221874Q220.21875 29.565624 220.21875 30.159374L217.40625 30.159374Q217.40625 29.2375 217.96875 28.45625Q218.53125 27.675 219.5625 27.2375Q220.60938 26.784374 221.89062 26.784374Q223.84375 26.784374 224.98438 27.76875Q226.14062 28.753124 226.14062 30.534374L226.14062 35.1125Q226.15625 36.6125 226.5625 37.378124L226.5625 37.55L223.70312 37.55ZM221.375 35.58125Q222.0 35.58125 222.51562 35.315624Q223.04688 35.034374 223.3125 34.565624L223.3125 32.7375L222.25 32.7375Q220.14062 32.7375 220.0 34.20625L219.98438 34.378124Q219.98438 34.909374 220.35938 35.253124Q220.73438 35.58125 221.375 35.58125ZM234.3125 34.628124Q234.3125 34.1125 233.79688 33.815624Q233.28125 33.51875 232.15625 33.284374Q228.375 32.4875 228.375 30.08125Q228.375 28.675 229.54688 27.7375Q230.71875 26.784374 232.59375 26.784374Q234.60938 26.784374 235.8125 27.7375Q237.01562 28.675 237.01562 30.190624L234.20312 30.190624Q234.20312 29.596874 233.8125 29.20625Q233.42188 28.8 232.59375 28.8Q231.875 28.8 231.48438 29.128124Q231.09375 29.440624 231.09375 29.940624Q231.09375 30.409374 231.53125 30.70625Q231.98438 30.9875 233.03125 31.20625Q234.09375 31.409374 234.8125 31.675Q237.04688 32.4875 237.04688 34.51875Q237.04688 35.95625 235.8125 36.8625Q234.57812 37.753124 232.60938 37.753124Q231.28125 37.753124 230.25 37.284374Q229.21875 36.8 228.625 35.971874Q228.04688 35.14375 228.04688 34.190624L230.71875 34.190624Q230.76562 34.940624 231.28125 35.346874Q231.79688 35.7375 232.67188 35.7375Q233.48438 35.7375 233.89062 35.440624Q234.3125 35.128124 234.3125 34.628124ZM253.09375 32.3625Q253.09375 34.8 251.98438 36.284374Q250.875 37.753124 249.0 37.753124Q247.39062 37.753124 246.40625 36.628124L246.40625 41.6125L243.57812 41.6125L243.57812 26.9875L246.20312 26.9875L246.29688 28.01875Q247.32812 26.784374 248.96875 26.784374Q250.92188 26.784374 252.0 28.2375Q253.09375 29.675 253.09375 32.221874L253.09375 32.3625ZM250.28125 32.159374Q250.28125 30.690624 249.75 29.89375Q249.23438 29.08125 248.23438 29.08125Q246.90625 29.08125 246.40625 30.096874L246.40625 34.425Q246.92188 35.471874 248.25 35.471874Q250.28125 35.471874 250.28125 32.159374ZM260.51562 29.628124Q259.95312 29.55 259.5 29.55Q257.90625 29.55 257.40625 30.628124L257.40625 37.55L254.57812 37.55L254.57812 26.9875L257.25 26.9875L257.32812 28.2375Q258.17188 26.784374 259.6875 26.784374Q260.15625 26.784374 260.5625 26.909374L260.51562 29.628124ZM266.45312 37.753124Q264.125 37.753124 262.65625 36.33125Q261.20312 34.89375 261.20312 32.51875L261.20312 32.253124Q261.20312 30.659374 261.8125 29.409374Q262.4375 28.14375 263.5625 27.471874Q264.6875 26.784374 266.14062 26.784374Q268.29688 26.784374 269.54688 28.159374Q270.79688 29.51875 270.79688 32.034374L270.79688 33.190624L264.0625 33.190624Q264.20312 34.221874 264.89062 34.846874Q265.57812 35.471874 266.64062 35.471874Q268.26562 35.471874 269.1875 34.284374L270.5625 35.846874Q269.9375 36.7375 268.84375 37.253124Q267.76562 37.753124 266.45312 37.753124ZM266.125 29.065624Q265.28125 29.065624 264.75 29.64375Q264.23438 30.20625 264.09375 31.253124L268.01562 31.253124L268.01562 31.034374Q268.0 30.096874 267.51562 29.58125Q267.03125 29.065624 266.125 29.065624ZM276.54688 34.096874L278.5 26.9875L281.45312 26.9875L277.89062 37.55L275.1875 37.55L271.625 26.9875L274.57812 26.9875L276.54688 34.096874ZM285.5625 37.55L282.73438 37.55L282.73438 26.9875L285.5625 26.9875L285.5625 37.55ZM282.5625 24.253124Q282.5625 23.6125 282.98438 23.20625Q283.42188 22.8 284.14062 22.8Q284.875 22.8 285.29688 23.20625Q285.73438 23.6125 285.73438 24.253124Q285.73438 24.89375 285.29688 25.3Q284.85938 25.70625 284.14062 25.70625Q283.4375 25.70625 283.0 25.3Q282.5625 24.89375 282.5625 24.253124ZM293.3125 34.628124Q293.3125 34.1125 292.79688 33.815624Q292.28125 33.51875 291.15625 33.284374Q287.375 32.4875 287.375 30.08125Q287.375 28.675 288.54688 27.7375Q289.71875 26.784374 291.59375 26.784374Q293.60938 26.784374 294.8125 27.7375Q296.01562 28.675 296.01562 30.190624L293.20312 30.190624Q293.20312 29.596874 292.8125 29.20625Q292.42188 28.8 291.59375 28.8Q290.875 28.8 290.48438 29.128124Q290.09375 29.440624 290.09375 29.940624Q290.09375 30.409374 290.53125 30.70625Q290.98438 30.9875 292.03125 31.20625Q293.09375 31.409374 293.8125 31.675Q296.04688 32.4875 296.04688 34.51875Q296.04688 35.95625 294.8125 36.8625Q293.57812 37.753124 291.60938 37.753124Q290.28125 37.753124 289.25 37.284374Q288.21875 36.8 287.625 35.971874Q287.04688 35.14375 287.04688 34.190624L289.71875 34.190624Q289.76562 34.940624 290.28125 35.346874Q290.79688 35.7375 291.67188 35.7375Q292.48438 35.7375 292.89062 35.440624Q293.3125 35.128124 293.3125 34.628124ZM300.96875 24.378124L300.96875 26.9875L302.76562 26.9875L302.76562 29.05L300.96875 29.05L300.96875 34.33125Q300.96875 34.909374 301.1875 35.175Q301.40625 35.425 302.04688 35.425Q302.51562 35.425 302.875 35.346874L302.875 37.4875Q302.04688 37.753124 301.17188 37.753124Q298.20312 37.753124 298.14062 34.753124L298.14062 29.05L296.59375 29.05L296.59375 26.9875L298.14062 26.9875L298.14062 24.378124L300.96875 24.378124ZM310.70312 37.55Q310.51562 37.175 310.42188 36.596874Q309.40625 37.753124 307.76562 37.753124Q306.20312 37.753124 305.1875 36.846874Q304.17188 35.940624 304.17188 34.58125Q304.17188 32.89375 305.40625 32.003124Q306.65625 31.096874 309.01562 31.096874L310.3125 31.096874L310.3125 30.4875Q310.3125 29.753124 309.9375 29.315624Q309.5625 28.878124 308.75 28.878124Q308.03125 28.878124 307.625 29.221874Q307.21875 29.565624 307.21875 30.159374L304.40625 30.159374Q304.40625 29.2375 304.96875 28.45625Q305.53125 27.675 306.5625 27.2375Q307.60938 26.784374 308.89062 26.784374Q310.84375 26.784374 311.98438 27.76875Q313.14062 28.753124 313.14062 30.534374L313.14062 35.1125Q313.15625 36.6125 313.5625 37.378124L313.5625 37.55L310.70312 37.55ZM308.375 35.58125Q309.0 35.58125 309.51562 35.315624Q310.04688 35.034374 310.3125 34.565624L310.3125 32.7375L309.25 32.7375Q307.14062 32.7375 307.0 34.20625L306.98438 34.378124Q306.98438 34.909374 307.35938 35.253124Q307.73438 35.58125 308.375 35.58125ZM321.3125 34.628124Q321.3125 34.1125 320.79688 33.815624Q320.28125 33.51875 319.15625 33.284374Q315.375 32.4875 315.375 30.08125Q315.375 28.675 316.54688 27.7375Q317.71875 26.784374 319.59375 26.784374Q321.60938 26.784374 322.8125 27.7375Q324.01562 28.675 324.01562 30.190624L321.20312 30.190624Q321.20312 29.596874 320.8125 29.20625Q320.42188 28.8 319.59375 28.8Q318.875 28.8 318.48438 29.128124Q318.09375 29.440624 318.09375 29.940624Q318.09375 30.409374 318.53125 30.70625Q318.98438 30.9875 320.03125 31.20625Q321.09375 31.409374 321.8125 31.675Q324.04688 32.4875 324.04688 34.51875Q324.04688 35.95625 322.8125 36.8625Q321.57812 37.753124 319.60938 37.753124Q318.28125 37.753124 317.25 37.284374Q316.21875 36.8 315.625 35.971874Q315.04688 35.14375 315.04688 34.190624L317.71875 34.190624Q317.76562 34.940624 318.28125 35.346874Q318.79688 35.7375 319.67188 35.7375Q320.48438 35.7375 320.89062 35.440624Q321.3125 35.128124 321.3125 34.628124ZM334.54688 34.096874L336.5 26.9875L339.45312 26.9875L335.89062 37.55L333.1875 37.55L329.625 26.9875L332.57812 26.9875L334.54688 34.096874ZM346.3125 34.628124Q346.3125 34.1125 345.79688 33.815624Q345.28125 33.51875 344.15625 33.284374Q340.375 32.4875 340.375 30.08125Q340.375 28.675 341.54688 27.7375Q342.71875 26.784374 344.59375 26.784374Q346.60938 26.784374 347.8125 27.7375Q349.01562 28.675 349.01562 30.190624L346.20312 30.190624Q346.20312 29.596874 345.8125 29.20625Q345.42188 28.8 344.59375 28.8Q343.875 28.8 343.48438 29.128124Q343.09375 29.440624 343.09375 29.940624Q343.09375 30.409374 343.53125 30.70625Q343.98438 30.9875 345.03125 31.20625Q346.09375 31.409374 346.8125 31.675Q349.04688 32.4875 349.04688 34.51875Q349.04688 35.95625 347.8125 36.8625Q346.57812 37.753124 344.60938 37.753124Q343.28125 37.753124 342.25 37.284374Q341.21875 36.8 340.625 35.971874Q340.04688 35.14375 340.04688 34.190624L342.71875 34.190624Q342.76562 34.940624 343.28125 35.346874Q343.79688 35.7375 344.67188 35.7375Q345.48438 35.7375 345.89062 35.440624Q346.3125 35.128124 346.3125 34.628124ZM350.73438 36.159374Q350.73438 35.4875 351.1875 35.065624Q351.64062 34.64375 352.32812 34.64375Q353.01562 34.64375 353.46875 35.065624Q353.92188 35.4875 353.92188 36.159374Q353.92188 36.83125 353.46875 37.253124Q353.03125 37.659374 352.32812 37.659374Q351.625 37.659374 351.17188 37.253124Q350.73438 36.83125 350.73438 36.159374ZM367.51562 29.628124Q366.95312 29.55 366.5 29.55Q364.90625 29.55 364.40625 30.628124L364.40625 37.55L361.57812 37.55L361.57812 26.9875L364.25 26.9875L364.32812 28.2375Q365.17188 26.784374 366.6875 26.784374Q367.15625 26.784374 367.5625 26.909374L367.51562 29.628124ZM373.45312 37.753124Q371.125 37.753124 369.65625 36.33125Q368.20312 34.89375 368.20312 32.51875L368.20312 32.253124Q368.20312 30.659374 368.8125 29.409374Q369.4375 28.14375 370.5625 27.471874Q371.6875 26.784374 373.14062 26.784374Q375.29688 26.784374 376.54688 28.159374Q377.79688 29.51875 377.79688 32.034374L377.79688 33.190624L371.0625 33.190624Q371.20312 34.221874 371.89062 34.846874Q372.57812 35.471874 373.64062 35.471874Q375.26562 35.471874 376.1875 34.284374L377.5625 35.846874Q376.9375 36.7375 375.84375 37.253124Q374.76562 37.753124 373.45312 37.753124ZM373.125 29.065624Q372.28125 29.065624 371.75 29.64375Q371.23438 30.20625 371.09375 31.253124L375.01562 31.253124L375.01562 31.034374Q375.0 30.096874 374.51562 29.58125Q374.03125 29.065624 373.125 29.065624ZM385.70312 37.55Q385.51562 37.175 385.42188 36.596874Q384.40625 37.753124 382.76562 37.753124Q381.20312 37.753124 380.1875 36.846874Q379.17188 35.940624 379.17188 34.58125Q379.17188 32.89375 380.40625 32.003124Q381.65625 31.096874 384.01562 31.096874L385.3125 31.096874L385.3125 30.4875Q385.3125 29.753124 384.9375 29.315624Q384.5625 28.878124 383.75 28.878124Q383.03125 28.878124 382.625 29.221874Q382.21875 29.565624 382.21875 30.159374L379.40625 30.159374Q379.40625 29.2375 379.96875 28.45625Q380.53125 27.675 381.5625 27.2375Q382.60938 26.784374 383.89062 26.784374Q385.84375 26.784374 386.98438 27.76875Q388.14062 28.753124 388.14062 30.534374L388.14062 35.1125Q388.15625 36.6125 388.5625 37.378124L388.5625 37.55L385.70312 37.55ZM383.375 35.58125Q384.0 35.58125 384.51562 35.315624Q385.04688 35.034374 385.3125 34.565624L385.3125 32.7375L384.25 32.7375Q382.14062 32.7375 382.0 34.20625L381.98438 34.378124Q381.98438 34.909374 382.35938 35.253124Q382.73438 35.58125 383.375 35.58125ZM393.5625 37.55L390.73438 37.55L390.73438 22.55L393.5625 22.55L393.5625 37.55ZM400.45312 37.753124Q398.125 37.753124 396.65625 36.33125Q395.20312 34.89375 395.20312 32.51875L395.20312 32.253124Q395.20312 30.659374 395.8125 29.409374Q396.4375 28.14375 397.5625 27.471874Q398.6875 26.784374 400.14062 26.784374Q402.29688 26.784374 403.54688 28.159374Q404.79688 29.51875 404.79688 32.034374L404.79688 33.190624L398.0625 33.190624Q398.20312 34.221874 398.89062 34.846874Q399.57812 35.471874 400.64062 35.471874Q402.26562 35.471874 403.1875 34.284374L404.5625 35.846874Q403.9375 36.7375 402.84375 37.253124Q401.76562 37.753124 400.45312 37.753124ZM400.125 29.065624Q399.28125 29.065624 398.75 29.64375Q398.23438 30.20625 398.09375 31.253124L402.01562 31.253124L402.01562 31.034374Q402.0 30.096874 401.51562 29.58125Q401.03125 29.065624 400.125 29.065624ZM412.3125 34.628124Q412.3125 34.1125 411.79688 33.815624Q411.28125 33.51875 410.15625 33.284374Q406.375 32.4875 406.375 30.08125Q406.375 28.675 407.54688 27.7375Q408.71875 26.784374 410.59375 26.784374Q412.60938 26.784374 413.8125 27.7375Q415.01562 28.675 415.01562 30.190624L412.20312 30.190624Q412.20312 29.596874 411.8125 29.20625Q411.42188 28.8 410.59375 28.8Q409.875 28.8 409.48438 29.128124Q409.09375 29.440624 409.09375 29.940624Q409.09375 30.409374 409.53125 30.70625Q409.98438 30.9875 411.03125 31.20625Q412.09375 31.409374 412.8125 31.675Q415.04688 32.4875 415.04688 34.51875Q415.04688 35.95625 413.8125 36.8625Q412.57812 37.753124 410.60938 37.753124Q409.28125 37.753124 408.25 37.284374Q407.21875 36.8 406.625 35.971874Q406.04688 35.14375 406.04688 34.190624L408.71875 34.190624Q408.76562 34.940624 409.28125 35.346874Q409.79688 35.7375 410.67188 35.7375Q411.48438 35.7375 411.89062 35.440624Q412.3125 35.128124 412.3125 34.628124Z" fill-rule="nonzero"/></svg>